<?xml version="1.0" standalone="no"?>
<!DOCTYPE svg PUBLIC "-//W3C//DTD SVG 1.1//EN" "http://www.w3.org/Graphics/SVG/1.1/DTD/svg11.dtd" >
<svg xmlns="http://www.w3.org/2000/svg">
<metadata>
Created by FontForge 20120731 at Wed Jan  4 14:06:04 2017
 By admin
</metadata>
<defs>
<font id="iconfontYCJ" horiz-adv-x="1024" >
  <font-face 
    font-family="iconfontYCJ"
    font-weight="500"
    font-stretch="normal"
    units-per-em="1024"
    panose-1="2 0 6 3 0 0 0 0 0 0"
    ascent="896"
    descent="-128"
    x-height="792"
    bbox="-57 -224 4201 896.55"
    underline-thickness="0"
    underline-position="0"
    unicode-range="U+0078-E75E"
  />
<missing-glyph 
 />
    <glyph glyph-name=".notdef" 
 />
    <glyph glyph-name=".notdef" 
 />
    <glyph glyph-name=".null" horiz-adv-x="0" 
 />
    <glyph glyph-name="nonmarkingreturn" horiz-adv-x="341" 
 />
    <glyph glyph-name="x" unicode="x" horiz-adv-x="1001" 
d="M281 543q-27 -1 -53 -1h-83q-18 0 -36.5 -6t-32.5 -18.5t-23 -32t-9 -45.5v-76h912v41q0 16 -0.5 30t-0.5 18q0 13 -5 29t-17 29.5t-31.5 22.5t-49.5 9h-133v-97h-438v97zM955 310v-52q0 -23 0.5 -52t0.5 -58t-10.5 -47.5t-26 -30t-33 -16t-31.5 -4.5q-14 -1 -29.5 -0.5
t-29.5 0.5h-32l-45 128h-439l-44 -128h-29h-34q-20 0 -45 1q-25 0 -41 9.5t-25.5 23t-13.5 29.5t-4 30v167h911zM163 247q-12 0 -21 -8.5t-9 -21.5t9 -21.5t21 -8.5q13 0 22 8.5t9 21.5t-9 21.5t-22 8.5zM316 123q-8 -26 -14 -48q-5 -19 -10.5 -37t-7.5 -25t-3 -15t1 -14.5
t9.5 -10.5t21.5 -4h37h67h81h80h64h36q23 0 34 12t2 38q-5 13 -9.5 30.5t-9.5 34.5q-5 19 -11 39h-368zM336 498v228q0 11 2.5 23t10 21.5t20.5 15.5t34 6h188q31 0 51.5 -14.5t20.5 -52.5v-227h-327z" />
    <glyph glyph-name="fenxiang" unicode="&#xe637;" 
d="M706 91q-25 0 -47 -12l-206 153q4 16 4 31q0 25 -9 48l219 214q18 -8 39 -8q42 0 71 29.5t29 71t-29 71t-71 29.5t-71 -29.5t-29 -70.5q0 -14 3 -27l-222 -218q-24 10 -50 10q-49 0 -84.5 -35t-35.5 -84.5t35.5 -84.5t84.5 -35q35 0 64 18l206 -153q-1 -9 -1 -19
q0 -41 29 -70.5t71 -29.5t71 29.5t29 71t-29 71t-71 29.5v0z" />
    <glyph glyph-name="unie61d" unicode="&#xe635;" 
d="M-57 853v0v0zM743 324q-16 4 -21 10.5t-2 11.5l3 6q2 1 3 3.5t4 9.5t5 14t3 17.5t-0.5 20t-6.5 20.5t-14 20q-16 15 -40.5 19.5t-49.5 0.5t-47 -10t-36 -11l-15 -7q-11 -3 -18 -4t-11 0.5t-6 3t-1.5 7.5t1 10.5t2.5 14t3 15.5q0 13 -1.5 24.5t-7 26t-16 23t-26.5 14
t-41.5 3.5t-57.5 -13q-38 -13 -78 -39t-69 -54.5t-53.5 -54.5t-37.5 -43l-12 -18q-36 -47 -54 -94.5t-17 -71.5v-23q7 -53 33 -95t62 -68t84.5 -44.5t93 -26.5t94.5 -11q81 -7 169 12.5t163.5 66.5t106.5 114q19 38 19.5 72.5t-12 56t-31.5 38t-36 24t-31 9.5v0zM407 -19
q-119 -5 -202.5 46.5t-83.5 131.5q0 78 83 135t203 62.5t203 -40t83 -123.5q0 -79 -84.5 -142.5t-201.5 -69.5v0zM375 287q-32 -3 -57.5 -15t-40 -26.5t-24.5 -32t-13.5 -34t-4.5 -30t-1 -21.5l1 -9v-4q0 -3 2 -13t6 -18.5t12.5 -18.5t21.5 -16q72 -36 135 -22t102 64
q15 18 20 46t-2 56t-24.5 51t-52.5 35.5t-80 7.5v0zM335 78q-7 -1 -13 -0.5t-11 2.5t-9.5 4t-8 6t-6.5 7.5t-4.5 9t-1.5 10.5q0 12 6.5 23.5t18 20t26.5 9.5q10 1 19.5 -0.5t16 -5.5t11.5 -9t7 -11.5t2 -14.5q0 -12 -7 -23t-19.5 -18.5t-26.5 -9.5v0zM429 158
q-8 -6 -16 -5.5t-12 7.5l-2 4q-1 3 -1 5v4q0 4 1 6l2 4q1 2 4 3l3 5q9 7 17 5.5t12 -8.5q3 -5 2.5 -10.5t-3.5 -10.5t-7 -9v0zM821 388q6 0 11.5 3.5t9 8.5t4.5 10q1 2 1 4q13 126 -88 143q-30 6 -55 1q-8 0 -13.5 -3.5t-9.5 -10t-4 -12.5q0 -11 8 -19t19 -8q86 20 92 -55
q2 -19 -2 -35q0 -11 8 -19t19 -8v0zM802 700q-49 11 -130 -5q-1 0 -3 -1l-1 -2l-1 -1q-12 -4 -19.5 -14.5t-7.5 -22.5q0 -16 11 -27t26 -11h3q2 0 5.5 1t8 1.5t9.5 2t9 3.5t15 2t27 -2t35 -8.5t38.5 -16.5t39 -27.5t33.5 -40.5q29 -65 11 -126q0 -1 -0.5 -2t-1.5 -5.5
t-2 -8.5l-2.5 -10t-1.5 -10q0 -10 5.5 -17t14 -9.5t19.5 -2.5q31 0 36 37q14 43 15.5 82.5t-5.5 69t-21.5 55.5t-33.5 44.5t-42 33t-44.5 23.5t-44.5 15v0z" />
    <glyph glyph-name="android" unicode="&#xe62a;" 
d="M839.5 455q-22.5 0 -38.5 -16t-16 -39v-216q0 -23 16 -39.5t38.5 -16.5t38.5 16.5t16 39.5v216q0 23 -16 39t-38.5 16zM182.5 455q-22.5 0 -38.5 -16t-16 -39v-216q0 -23 16 -39.5t38.5 -16.5t38.5 16.5t16 39.5v216q0 23 -16 39t-38.5 16zM270 454v-395
q0 -18 12.5 -30.5t29.5 -12.5h49v-120q0 -23 16 -39.5t38.5 -16.5t38.5 16.5t16 39.5v120h84v-120q0 -23 16 -39.5t39 -16.5t38.5 16.5t15.5 39.5v120h49q18 0 30 12.5t12 30.5v395h-484zM626 658l45 65q5 7 -1.5 11.5t-11.5 -2.5l-46 -68q-48 19 -101 19t-101 -19l-46 68
q-5 7 -11 2.5t-2 -11.5l45 -65q-54 -25 -88.5 -70t-38.5 -99h484q-4 54 -38.5 99t-88.5 70zM409 556q-11 0 -19 8t-8 19t8 18.5t19 7.5t19 -7.5t8 -18.5t-8 -19t-19 -8zM617 556q-11 0 -19 8t-8 19t8 18.5t19 7.5t18.5 -7.5t7.5 -18.5t-7.5 -19t-18.5 -8z" />
    <glyph glyph-name="weixin" unicode="&#xe636;" 
d="M693 465q15 0 35 -2q-23 109 -127.5 181.5t-238.5 72.5q-98 0 -181 -40.5t-132 -111.5t-49 -156q0 -143 145 -245l-36 -109l127 64q6 -2 25 -5.5t27 -5t22.5 -4t26.5 -3t25 -0.5q16 0 34 1q-11 38 -11 76q0 119 89.5 203t218.5 84zM498 563q21 0 33.5 -12.5t12.5 -33
t-12.5 -33t-33.5 -12.5t-37.5 13t-16.5 32.5t16.5 32.5t37.5 13zM245 472q-22 0 -38.5 13t-16.5 32.5t16.5 32.5t38.5 13q20 0 32.5 -12.5t12.5 -33t-12.5 -33t-32.5 -12.5zM1024 182q0 71 -43 132t-113.5 96t-151.5 35q-129 0 -218.5 -77t-89.5 -186t89.5 -186t218.5 -77
q37 0 109 18l99 -54l-27 90q127 96 127 209zM616 228q-13 0 -24.5 11t-11.5 24.5t11.5 25t24.5 11.5q20 0 33 -11t13 -25.5t-13 -25t-33 -10.5zM815 228q-13 0 -24.5 11t-11.5 24.5t11.5 25t24.5 11.5q20 0 33 -11t13 -25.5t-13 -25t-33 -10.5z" />
    <glyph glyph-name="apple" unicode="&#xe62b;" 
d="M837 124q42 -59 96 -77q-24 -72 -75 -151q-79 -119 -156 -119q-28 0 -85 19q-52 20 -91 20t-86 -21q-49 -19 -81 -19q-92 0 -181 157q-89 154 -89 304q0 138 68 226q69 88 172 88q22 0 50 -5.5t57 -20.5q32 -18 52.5 -24.5t31.5 -6.5q14 0 41.5 6t54.5 22q30 17 51.5 25
t44.5 8q71 0 129 -39q30 -20 62 -60q-47 -41 -68 -72q-40 -57 -40 -125q0 -74 42 -135zM631 602q-36 -33 -66 -44q-10 -3 -26 -5.5t-36 -4.5q1 90 47 155.5t151 90.5q2 -10 4 -14v-12q0 -37 -18 -83q-18 -45 -56 -83z" />
    <glyph glyph-name="baojifuben2" unicode="&#xe63d;" 
d="M504 -196q161 0 269 103.5t131 273.5q11 83 8.5 156.5t-12.5 135t-27.5 113t-35 90t-36 66.5t-30.5 42.5t-18 17.5q-18 -46 -38.5 -83t-39 -59.5t-39 -38t-36.5 -22.5t-33.5 -10t-28 -2t-21.5 2.5t-13 1.5q14 28 87 95l3 4q-1 -1 -11 -0.5t-28 -0.5t-42 -4.5t-55 -13.5
t-63.5 -25.5t-71 -43t-75.5 -63.5q-41 -40 -70 -88t-42.5 -95t-19 -85t-5.5 -74q0 -107 52.5 -197.5t143.5 -143t197 -52.5v0zM300 306q-1 -3 -2.5 -8.5t-4.5 -21t-4 -29t1 -30t8 -28t20 -18t35 -4.5q27 3 52 18t45.5 33.5t43 37t56 30.5t73.5 12q-2 -4 -6.5 -10.5
t-15.5 -27t-20 -39.5t-17.5 -44t-10.5 -44t3.5 -36t21.5 -24q22 -10 39 -13t34 4t27 14.5t32 25.5t37 29q-2 -22 -5.5 -41t-12.5 -46t-21 -48t-33.5 -43t-48.5 -35.5t-67.5 -20.5t-89.5 -3q-70 6 -126 32.5t-87.5 68.5t-41.5 92t12 107t74 110v0zM300 306z" />
    <glyph glyph-name="new" unicode="&#xe647;" 
d="M956 505h-888q-28 0 -48 -20t-20 -48v-274q0 -28 20 -48t48 -20h888q28 0 48 20t20 48v274q0 28 -20 48t-48 20zM338 168h-60l-95 173v-173h-57v248h76l79 -142v142h57v-248zM557 369h-106v-44h97v-47h-97v-63h106v-47h-168v248h168v-47v0zM856 168h-68l-40 154l-39 -154
h-68l-63 248h65l34 -166l42 166h61l40 -166l36 166h63z" />
    <glyph glyph-name="0084" unicode="&#xe628;" 
d="M207 288l512 512l98 -98l-415 -414l415 -414l-98 -98z" />
    <glyph glyph-name="huo" unicode="&#xe633;" 
d="M775 638q-41 -13 -70 -36.5t-42 -52.5t-17 -56t-1 -53q-24 29 -39.5 63t-23.5 63t-12 76.5t-4.5 78t-0.5 92.5v20q-48 -19 -85 -48.5t-59 -62.5t-38 -71t-21 -75.5t-9 -75t-1.5 -69.5t1.5 -59.5t0 -43.5q-30 25 -50 74.5t-25 85.5l-5 36q-50 -27 -78 -92t-28 -132
q0 -99 46 -183t125.5 -133t173.5 -49t173.5 49t125.5 133t46 183q0 39 -13 80t-28.5 72t-28 81t-12.5 105z" />
    <glyph glyph-name="shoucang" unicode="&#xe652;" 
d="M513 872l165 -301l336 -65l-234 -251l43 -341l-310 146l-310 -146l43 341l-234 251l336 65zM406 491l-218 -42l152 -164l-28 -221l202 95l201 -95l-28 221l152 164l-218 42l-107 195l-108 -195v0z" />
    <glyph glyph-name="xiazai" unicode="&#xe631;" 
d="M844 685h-130v-75h74q16 0 27 -11t11 -26v-410q0 -15 -11 -26t-27 -11h-521q-16 0 -27 11t-11 26v410q0 15 11 26t27 11h74v75h-130q-23 0 -39.5 -16.5t-16.5 -39.5v-522q0 -23 16.5 -39.5t39.5 -16.5h633q23 0 39.5 16.5t16.5 39.5v522q0 23 -16.5 39.5t-39.5 16.5v0z
M529 238l14 14l4 -5l200 199l-53 53l-129 -129v361q0 12 -8.5 20t-19.5 8h-19q-11 0 -19.5 -8t-8.5 -20v-346l-113 114l-54 -55l206 -206v0z" />
    <glyph glyph-name="new1" unicode="&#xe634;" 
d="M768 768h-512q-53 0 -90.5 -37.5t-37.5 -90.5v-597q0 -30 27 -41t49 10l89 89q27 27 65 27h410q53 0 90.5 37.5t37.5 90.5v384q0 53 -37.5 90.5t-90.5 37.5zM704 288q0 -13 -9.5 -22.5t-22.5 -9.5q-8 0 -13 3q-10 2 -16 9l-259 258v-238q0 -13 -9.5 -22.5t-22.5 -9.5
t-22.5 9.5t-9.5 22.5v312q-3 18 9 31q11 11 25 11t25 -11l261 -261v238q0 13 9.5 22.5t22.5 9.5t22.5 -9.5t9.5 -22.5v-320z" />
    <glyph glyph-name="shuaxin" unicode="&#xe64d;" 
d="M702 148q-80 -56 -178 -55q-12 0 -25 1q-2 0 -5.5 0.5t-4.5 1.5q-13 1 -19 2q-1 1 -11 3q-12 3 -19 5l-8 3q-13 4 -21 7q0 1 -4 3q-14 6 -24 11h-1q-38 22 -69 53v1h-1l-18 20q-1 1 -2 2.5t-2 2.5q-66 84 -66 192h70q3 0 4.5 2.5t0.5 4.5l-119 180q-1 3 -4 3t-4 -3
l-119 -180q-2 -2 -0.5 -4.5t4.5 -2.5h71q0 -126 71 -230l0.5 -1t0.5 -2q3 -3 15 -19q0 -1 2 -3.5t3 -3.5q10 -12 23 -26q2 -2 3 -2q40 -41 90 -68l2 -2q13 -7 29 -14q1 -1 3.5 -2t4.5 -1q10 -5 25 -10q10 -3 13 -4q8 -3 23 -6q13 -3 16 -4q1 0 3 -0.5t3 -0.5q5 -1 23 -3
q1 -1 3.5 -1h4.5q22 -3 40 -3q125 0 228 74q17 11 20.5 31t-8 36.5t-31 20t-36.5 -8.5zM928 401q0 125 -71 228q0 1 -0.5 2t-0.5 2q-6 7 -18 23l-1 1l-1 1q-61 75 -149 114q-1 0 -2.5 1t-2.5 1q-12 5 -28 11q-1 0 -3 0.5t-4 1.5t-3 1q-10 3 -26 7q-12 2 -14 3q-1 0 -3 0.5
t-4 0.5q-3 1 -10 2t-9 1q-1 0 -5.5 0.5t-7.5 0.5q-13 2 -31 2h-3h-3h-0.5h-0.5q-126 0 -228 -73q-17 -11 -20.5 -31t8 -36.5t31 -20t36.5 8.5q79 56 176 55q14 0 27 -1q1 0 4 -0.5t4 -0.5q12 -2 21 -4q1 0 10 -2l20 -5q1 -1 3.5 -1.5t3.5 -0.5q12 -5 22 -9q1 0 1.5 -0.5
t1.5 -0.5q67 -29 114 -87h0.5t0.5 -1q69 -85 69 -194h-71q-3 0 -4.5 -3t0.5 -5l119 -180q1 -3 4 -3t4 3l119 180q1 2 -0.5 5t-4.5 3h-70v0z" />
    <glyph glyph-name="hot" unicode="&#xe630;" 
d="M586 484q-7 8 -18 12.5t-23.5 4.5t-23 -4.5t-18.5 -12.5t-12 -19.5t-4 -24.5q0 -14 4.5 -25.5t12 -20t18 -13t23 -4.5t23.5 4.5t18.5 13t11.5 20t4 25.5q0 13 -4 24.5t-12 19.5v0zM705 694h-392q-104 0 -177 -73t-73 -176v-356l155 107h487q103 0 176 73t73 176t-73 176
t-176 73v0zM403 338h-49v84h-79v-84h-48v202h48v-77h79v77h49v-202v0zM646 396q-8 -20 -22.5 -34t-35 -21.5t-44 -7.5t-43.5 7.5t-35 21.5t-23 34t-8 44t8 43.5t23 33t35 21t43.5 7.5t44 -7.5t35 -21t23 -33t8.5 -43.5t-9 -44v0zM822 498h-57v-160h-49v160h-57v42h163v-42z
M822 498z" />
    <glyph glyph-name="biaoqian" unicode="&#xe63a;" horiz-adv-x="1027" 
d="M96 896q-39 0 -67.5 -28t-28.5 -68v-289q0 -39 20 -87.5t48 -76.5l448 -447q28 -28 68 -28t68 28l346 345q28 28 28 68t-28 68l-448 447q-28 28 -76.5 48t-87.5 20h-290zM224 576q-39 0 -67.5 28t-28.5 68t28.5 68t68 28t68 -28t28.5 -68t-28.5 -68t-68.5 -28v0z" />
    <glyph glyph-name="bangzhuzhongxinicon" unicode="&#xe60a;" 
d="M536 676q94 -4 129 -77q45 -94 -16 -171q-13 -17 -56 -61t-43 -92q0 -50 -55 -43q-28 4 -29 35q-5 76 65 151l22 22t24 26q18 20 21 46t-9 47q-11 20 -34 28t-52 3q-51 -9 -60 -65q-4 -25 -12.5 -34.5t-28.5 -10.5q-23 -1 -33.5 9t-10.5 34q-1 64 50 108.5t128 44.5z
M573 145q0 -26 -18.5 -45.5t-44.5 -19.5q-25 0 -44.5 19.5t-19.5 44.5q0 26 19 45t45 19t44.5 -18.5t18.5 -44.5zM1024 364q-4 -35 -4 -36q-11 -88 -53 -170q-11 -23 -31 -27q-23 -4 -38 12t-10 38q2 10 7 21q30 67 38 131q23 179 -86 315q-98 121 -255 156
q-106 24 -215 -16q-115 -42 -190 -125q-72 -79 -92 -189q-11 -61 -6 -118q11 -140 97 -241q100 -119 255 -143q193 -31 341 89q18 14 31 16q24 3 40 -17q15 -19 4 -39q-8 -15 -20 -24q-105 -88 -238 -109q-1 0 -53 -6q-1 0 -7 -1h-52l-7 1q-59 7 -61 7q-193 36 -311 188
q-86 110 -104 255q0 2 -4 34v47l1 6q9 66 10 69q25 125 109.5 225t203.5 146q65 25 133 32l23 2h55l7 -1q79 -10 83 -11q224 -50 335 -251q49 -89 60 -186q0 -2 4 -33v-47z" />
    <glyph glyph-name="dujiabaodaoicon" unicode="&#xe60b;" 
d="M1024 362q-4 -35 -4 -37q-11 -87 -53 -171q-11 -21 -29 -26q-24 -6 -40 11.5t-9 42.5q2 10 9.5 27.5t8.5 20.5q38 98 29 195q-14 160 -130 268q-90 84 -208 112q-1 0 -12 2l37 -51l-4 -2q-91 -37 -108 -43q-24 -9 -31 -34q-2 -6 -17 -52q0 -1 -2 -4q-30 13 -112 50
q-6 -29 -7 -31q-9 -41 -13 -61q-3 -13 9 -18q73 -28 116 -24q26 2 31 2q39 -1 63 -33q18 -23 49 -28q12 -2 103 -21q1 0 7 -1v-6v-72q0 -5 -3 -10q-6 -12 -20 -36l-21 -36q-22 -39 -55 -70q-15 -14 -120 -109q-1 -1 -7 -6q-22 14 -19 38q8 69 -28 166q-4 8 -43 129
q-3 11 -3 13q-6 27 -36 38q-27 10 -83 34q-25 11 -45 39q-9 14 -14 20q-21 24 -21 59v20q-14 -17 -15 -18q-63 -78 -80 -181q-20 -125 19 -229q82 -218 309 -268q160 -35 299 44q4 2 60 41l18 12q24 13 44 -3q20 -15 49 -39q15 -14 43.5 -38.5t39.5 -33.5q21 -18 17 -43
q-4 -29 -34 -38l-4 -1h-14q-23 12 -24 13q-7 5 -63 54q-2 1 -40 34l-3 -2q-179 -128 -401 -85q-184 36 -301 187q-85 110 -104 256q0 2 -4 35v49l1 6q9 67 10 70q59 254 292 364q56 26 139 39q2 1 38 4h56q6 -1 7 -1q53 -3 102 -16q216 -58 320 -258q44 -86 55 -177
q0 -1 4 -34v-48z" />
    <glyph glyph-name="goumaiicon" unicode="&#xe60c;" 
d="M1013 688q-11 18 -32 18h-714q-7 0 -9 8q-20 62 -28 86q-8 25 -30 30l-1 1h-160q-7 -3 -8 -4q-17 -7 -24 -29l-2 -3v-18l11 -22q10 -15 30 -15h109h7q25 -78 27 -83q5 -18 16 -53t17 -53q22 -69 33 -105q5 -16 16 -50.5t17 -53t17 -53.5t17 -53q5 -18 16 -51.5t14 -43.5
l1 -3h-7h-94q-27 -1 -51 -21q-29 -24 -34 -65q-4 -33 11 -61q17 -33 50 -46l16 -5h23q29 12 30 12q37 20 46 68q1 1 2 26h464q3 -26 3 -28q8 -41 42 -63q16 -11 34 -14l1 -1h23q27 11 28 11q41 24 48 74q6 42 -19 77q-27 36 -67 36h-453q-9 0 -11 8t-24 77l-2 6q20 2 21 2
q6 0 21.5 1t23.5 1q12 1 34 3t27 3q7 0 20 1q4 0 21 1t26 2q8 0 55 4q8 0 26 1.5t27 2.5q10 0 28.5 1.5t26.5 2.5q47 3 54 4q19 1 26 4q17 5 27 31q16 39 25 62q19 48 33 82q4 10 12 29t12 28q6 15 17.5 43t16.5 42q5 12 14.5 35t12.5 30l2 7v19q-7 16 -8 17zM899 572
q-38 -94 -39 -95q-4 -10 -12 -29.5t-12 -29.5q-15 -38 -25 -62q-3 -7 -11 -8q-33 -1 -47 -2q-6 -1 -54 -4q-1 0 -54 -4q-9 -1 -27 -2t-27 -2q-54 -4 -55 -4q-7 -1 -25.5 -2t-28.5 -2q-46 -3 -54 -4q-15 -1 -41 -4q-4 0 -5 5q-5 15 -14 43.5t-12 37.5q-5 15 -16 51t-17 55
q-7 20 -19 58t-14 44v3h436l-137 -137l-101 81q-3 3 -5 0l-47 -58q-2 -3 1 -5l152 -123h1l2 -3q3 -2 5 0l244 245h75z" />
    <glyph glyph-name="guanyuyuncaijingicon" unicode="&#xe60d;" 
d="M451 366q-17 -16 -41 -38q-9 5 -16 11.5t-16.5 13.5t-17.5 13q34 41 66 67t72 38q41 12 60.5 -6.5t8.5 -59.5t-32.5 -119.5t-23.5 -86.5q-1 -1 -5 -26q50 43 53 45l1 -1l1 -1l1 -1v-1l1 -1l1 -1l1 -1l1 -1v-1l1 -1l1 -1l1 -1l1 -1l1 -1v-1l1 -1l1 -1l1 -1v-1h1l1 -1l1 -1
v-1l1 -1l1 -1v-1l1 -1l1 -1l1 -1v-1h1l1 -1l1 -1v-1l1 -1l1 -1l1 -1v-1l1 -1l1 -1l1 -1v-1l1 -1l1 -1l1 -1v-1l1 -1l1 -1l1 -1v-1l1 -1h1l1 -1l1 -1l1 -2q-11 -8 -34.5 -26.5t-43.5 -33t-39 -25.5q-40 -22 -67 -4t-20 63q4 28 10.5 57.5t17 69t14.5 56.5q0 2 11 44zM623 600
q0 -25 -19 -45.5t-43 -20.5q-22 0 -36.5 14.5t-15.5 36.5q0 27 18 46.5t44 19.5q22 0 36.5 -14t15.5 -37zM675 872q32 -13 33 -14q81 -35 150 -98q19 -17 17 -37q-3 -23 -22 -33.5t-40 0.5q-9 5 -18 12q-56 49 -116 74q-166 71 -327 2q-144 -61 -220 -203q-52 -95 -43 -212
q9 -122 68 -217q57 -91 157 -140q56 -27 113 -38q137 -28 258 27q143 65 208 207q83 179 8 353q-10 21 -8 35q4 24 28 34q22 9 38 -7q12 -12 19 -26q55 -125 39 -259q0 -1 -9 -53l-1 -7l-14 -50q-2 -6 -3 -6q-22 -56 -23 -58q-87 -175 -266 -248q-129 -53 -275 -31
q-1 0 -34 6q-7 2 -22 6t-23 7q-5 2 -6 2q-61 27 -63 28q-113 59 -186.5 168t-85.5 236q-7 69 5 137q1 1 4 23q1 4 6.5 23t8.5 29l3 7q32 74 34 77q109 202 333 254q100 23 196 8q2 0 33 -6z" />
    <glyph glyph-name="shichangredianicon" unicode="&#xe60f;" 
d="M72 263v53q2 10 2 11q14 117 91 190q8 8 45 41q0 1 6 5q29 -92 32 -98q26 -81 53 -117q1 -1 21 -24q-1 23 -8 62q-20 120 -8 214q26 198 213 275q3 1 65 21h4q-1 -152 6 -210q15 -105 58 -180q1 -3 35 -52q1 1 2 1t1 1q1 12 1 13q5 49 5 53q20 117 126 151q1 0 22 6l2 -8
q51 -147 56 -160q34 -86 43 -136q0 -3 7 -50v-57q-6 -45 -7 -47q-24 -130 -119 -224t-226 -116q-3 -1 -58 -9h-62l-9 2q-103 8 -188 58q-160 96 -201 272q-1 3 -10 59zM498 763l-4 -1q-1 -1 -3 -2q-61 -46 -85 -119q-28 -87 -9 -202q5 -26 11 -54t15 -65t12 -54q1 -3 15 -63
q-197 -4 -268 191q-2 -6 -3 -12q-1 -4 -4.5 -19t-4 -19.5t-3.5 -19.5t-2.5 -19.5t-1 -19.5t1.5 -20q13 -124 89 -201q140 -141 346 -95q155 36 233 199q40 82 23 159q-6 27 -36 119q-2 4 -28 72q-16 -89 16 -198l-3 -1q-89 -1 -147 41q-75 53 -114 153q-30 77 -43 216
q0 1 -3 34z" />
    <glyph glyph-name="shujuzhongxinicon" unicode="&#xe610;" 
d="M1020 803q-17 45 -62 54l-1 2h-887q-33 -16 -35 -17q-27 -18 -31 -53l-2 -3v-579q8 -25 9 -26q14 -30 48 -31q75 -1 204 -2h200v-9v-92q0 -5 2 -15q1 -8 -4 -13t-12 -3q-3 1 -9 1h-115.5h-140.5q-11 0 -15 -0.5t-8 -5.5t-4 -17q-3 -38 12 -64q7 -12 23 -12q133 0 222 1
q8 0 12 -6q16 -18 53 -27q2 -1 29 -6h26q27 7 29 8q25 7 37 25q4 6 12 6q23 -1 108.5 -0.5t108.5 -0.5q22 0 30.5 8.5t12.5 29.5q4 20 -1 38q-7 23 -29 23h-257q-17 0 -19.5 2.5t-2.5 19.5v99v10h11h374q34 0 50 12q20 14 24 41q0 1 2 6v579q-4 16 -4 17zM97 603v99
q1 33 18 47q13 12 27 12h234.5h274.5h235q16 0 26.5 -9.5t11.5 -24.5q1 -33 2 -94q0 -24 -2 -45q-2 -16 -12.5 -25.5t-27.5 -9.5h-372h-371q-34 1 -41 28q-3 9 -3 22zM925 295q0 -14 -5 -28q-5 -15 -27 -19q-10 -2 -27 -2h-715q-12 0 -24 4q-24 7 -24 31q-2 71 -2 130
q0 21 10 31q12 13 35 13h368h369q33 0 40 -27q2 -12 3 -21q0 -73 -1 -112zM783 400q-21 0 -35 -14t-15 -35q-2 -18 14 -34t35 -15q20 0 35 14t14 35q2 17 -13 33t-35 16zM781 608.5q20 -0.5 36 15t14 33.5q0 21 -14 34.5t-35 15.5q-19 1 -34.5 -14.5t-14.5 -35.5
q0 -19 14 -33.5t34 -15z" />
    <glyph glyph-name="zengzhifuwuicon" unicode="&#xe612;" 
d="M502 769h25l8 -2q83 -15 108 -92q24 -78 -36 -138q-5 -4 -3 -10q12 -30 54 -137q0 -1 14 -35l2 1q70 55 83 66q3 2 2 7q-6 24 -2 48q8 54 51 87t97 27q41 -4 72.5 -31.5t41.5 -67.5q1 -1 5 -21v-26q-4 -19 -4 -20q-21 -76 -104 -101q-5 -1 -5 -5q-35 -185 -46 -238
q-13 -72 -28 -143q-6 -28 -34 -36l-4 -1h-571l-1 1q-31 7 -37 38q-11 52 -31 156q-39 205 -42 223q-1 3 -5 5l-9 3l-9 3q-71 25 -90 95q0 1 -4 20v26l1 3q7 59 55.5 93.5t107.5 21.5q53 -12 82.5 -58t19.5 -100q-1 -5 2 -7q6 -5 61 -49q1 -1 27 -21l2 6q53 136 63 161
q5 12 -4 22q-33 35 -36 83t25 87t75 51q1 1 21 5zM514 500l-3 -7q-71 -182 -90 -232q-10 -26 -32.5 -32t-44.5 12q-33 26 -130 103l-5 3l-0.5 -0.5l-0.5 -0.5q44 -231 67 -350q16 -1 17 -1h447l14 1q16 82 17 88q3 20 7.5 42.5t10 50.5t8.5 43q17 87 22 118l-1 7l-6 -3
q-7 -5 -39 -31q-10 -8 -28.5 -23t-33.5 -26.5t-28 -22.5q-17 -13 -35 -11q-29 4 -40 33q-15 39 -58 148q-3 8 -35 91zM564 634q0 20 -14 34.5t-34 14.5t-34.5 -14.5t-14.5 -34.5t14 -34.5t34 -14.5t34.5 14.5t14.5 34.5zM135 506q-20 0 -34.5 -14t-14.5 -34.5t14 -34.5
t34 -14q21 0 35 14t14.5 34t-14 34.5t-34.5 14.5zM890.5 409q20.5 0 34.5 14t14 35q0 19 -14 33.5t-34 14.5t-34.5 -14t-14.5 -34.5t14 -34.5t34.5 -14z" />
    <glyph glyph-name="zhuyeicon" unicode="&#xe613;" 
d="M137 127v149q0 35 -14 48.5t-48 14.5q-4 0 -11 -1t-12 -0.5t-9 2.5q-35 14 -41 27q-5 11 6 48q1 3 4 6.5t7.5 7.5t6.5 5q261 258 434 430q32 32 51.5 32t51.5 -32q333 -330 436 -432q2 -2 7 -6t7.5 -7t3.5 -6q10 -35 5 -46q-6 -13 -38 -27q-4 -2 -9.5 -2.5t-12.5 0.5
t-10 1q-37 -1 -51.5 -15.5t-14.5 -50.5v-147v-148q0 -104 -106 -105q-72 -1 -118 0q-49 1 -75.5 27t-27.5 75v61v62q-1 25 -14.5 40t-34.5 14t-33 -15.5t-12 -38.5v-63.5v-62.5q-1 -44 -27 -70.5t-71 -28.5q-66 -2 -133 0q-44 1 -70 28t-27 71v155zM161 429
q44 -22 56.5 -43.5t12.5 -72.5v-290q0 -30 13.5 -43t44.5 -14h29q54 2 54 55v64t1 64q0 42 26 68t68 28h77q109 0 110 -110v-60t1 -60q0 -45 46 -49h27q39 0 52.5 13.5t13.5 52.5q0 235 -1 266q-1 52 13 84t56 45l-1 1l-1 1l-1 1l-1 1l-1 1l-1 1l-1 1l-1 1l-1 1l-1 1l-1 1
l-1 1l-1 1l-1 1l-1 1l-1 1l-1 1l-1 1l-1 1l-1 1l-1 1l-1 1l-1 1l-1 1l-1 1l-1 1l-1 1l-1 1l-1 1l-1 1l-1 1l-1 1l-1 1l-1 1l-1 1l-1 1l-1 1l-1 1l-1 1l-1 1l-1 1l-1 1l-1 1l-1 1l-1 1l-1 1l-2 1l-1 1l-1 1l-1 1l-1 1l-1 1l-1 1l-1 1l-1 1l-1 1l-1 1l-1 1l-1 1l-1 1l-1 1
l-1 1l-1 1l-1 1l-1 1l-1 1l-1 1l-1 1l-1 1l-1 1l-1 1l-1 1l-1 1l-1 1l-1 1l-1 1l-1 1l-1 1l-1 1l-1 1l-1 1l-1 1l-1 1l-1 1l-1 1l-1 1l-1 1l-1 1l-1 1l-1 1l-1 1l-1 1l-1 1l-1 1l-1 1l-1 1l-1 1l-1 1l-1 1l-1 1l-1 1l-1 1l-1 1l-1 1l-1 1l-1 1l-1 1l-1 1l-1 1l-1 1l-1 1
l-1 1l-1 1l-1 1l-1 1l-1 1l-1 1l-1 1l-1 1l-1 1l-1 1l-1 1l-1 1l-1 1l-1 1l-1 1l-1 1l-1 1l-1 1l-1 1l-1 1l-1 1l-1 1l-1 1l-1 1l-1 1l-1 1l-1 1l-1 1l-1 1l-1 1l-1 1l-1 1l-1 1l-1 1l-1 1l-1 1l-1 1l-1 1h-1l-1 1l-1 1l-1 1l-1 1l-1 1l-1 1l-1 1l-1 1l-1 1l-1 1l-1 1l-1 1
l-1 1l-1 1l-1 1l-1 1l-1 1l-1 1l-1 1l-1 1l-1 1l-1 1l-1 1l-1 1l-1 1l-1 1l-1 1l-1 1l-1 1l-1 1l-1 1l-1 1l-1 1l-1 1l-1 1l-1 1l-1 1l-1 1l-1 1l-1 1l-1 1l-1 1l-1 1l-1 1l-1 1l-1 1l-1 1l-1 1l-1 1l-1 1l-1 1l-1 1l-1 1l-1 1l-1 1l-1 1l-1 1l-1 1l-1 1l-1 1l-1 1l-1 1
l-1 1l-1 1l-1 1l-1 1l-1 1l-1 1l-1 1l-1 1l-1 1l-1 1l-1 1l-1 1l-1 1l-1 1l-1 1l-1 1l-1 1l-1 1l-1 1l-1 1l-1 1l-1 1l-1 1l-1 1l-1 1l-1 1l-1 1l-1 1l-1 1l-1 1l-1 1l-1 1l-1 1l-2 1l-1 1l-1 1l-1 1l-1 1l-1 1l-1 1l-1 1l-1 1l-1 1l-1 1l-1 1l-1 1l-1 1l-1 1l-1 1l-1 1
l-1 1l-1 1l-1 1l-1 1l-1 1l-1 1l-1 1l-1 1l-1 1l-1 1l-1 1l-1 1l-1 1l-1 1l-1 1l-1 1l-1 1l-1 1l-1 1l-1 1l-1 1l-1 1l-1 1l-1 1l-1 1l-1 1l-1 1l-1 1l-1 1l-1 1l-1 1l-1 1l-1 1l-1 1l-1 1l-1 1l-1 1l-1 1l-1 1l-1 1l-1 1l-1 1l-1 1l-1 1l-1 1l-1 1l-1 1l-1 1l-1 1l-1 1
l-1 1l-1 1l-1 1l-1 1l-1 1l-1 1l-1 1l-1 1l-1 1l-1 1l-1 1l-1 1l-1 1l-1 1l-1 1l-1 1l-1 1l-1 1l-1 1l-1 1l-1 1l-1 1l-1 1l-1 1l-1 1l-1 1l-1 1l-1 1l-1 1l-1 1l-1 1l-1 1l-1 1l-1 1l-1 1l-2 1l-1 -1l-1 -1l-1 -1l-1 -1l-1 -1l-1 -1l-1 -1l-1 -1l-1 -1l-1 -1l-1 -1l-1 -1
l-1 -1l-1 -1l-1 -1l-1 -1l-1 -1l-1 -1l-1 -1l-1 -1l-1 -1l-1 -1l-1 -1l-1 -1l-1 -1l-1 -1l-1 -1l-1 -1l-1 -1l-1 -1l-1 -1h-1l-1 -1l-1 -1l-1 -1l-1 -1l-1 -1l-1 -1l-1 -1l-1 -1l-1 -1l-1 -1l-1 -1l-1 -1l-1 -1l-1 -1l-1 -1l-1 -1l-1 -1l-1 -1l-1 -1l-1 -1l-1 -1l-1 -1
l-1 -1l-1 -1l-1 -1l-1 -1l-1 -1l-1 -1l-1 -1l-1 -1l-1 -1l-1 -1l-1 -1v-1l-1 -1l-1 -1l-1 -1l-1 -1l-1 -1l-1 -1l-1 -1l-1 -1l-1 -1l-1 -1l-1 -1l-1 -1l-1 -1l-1 -1l-1 -1l-1 -1l-1 -1l-1 -1l-1 -1l-1 -1l-1 -1l-1 -1l-1 -1h-1l-1 -1l-1 -1l-1 -1l-1 -1l-1 -1l-1 -1l-1 -1
l-1 -1l-1 -1l-1 -1l-1 -1l-1 -1l-1 -1l-1 -1l-1 -1l-1 -1l-1 -1l-1 -1l-1 -1l-1 -1l-1 -1l-1 -1l-1 -1l-1 -1l-1 -1l-1 -1l-1 -1l-1 -1l-1 -1l-1 -1l-1 -1l-1 -1l-1 -1l-1 -1l-1 -1l-1 -1l-1 -1l-1 -1l-1 -1l-1 -1l-1 -1l-1 -1l-1 -1l-1 -1l-1 -1l-1 -1l-1 -1l-1 -1l-1 -1
l-1 -1l-1 -1l-1 -1l-1 -1l-1 -1l-1 -1l-1 -1l-1 -1l-1 -1l-1 -1l-1 -1l-1 -1l-1 -1l-1 -1l-1 -1l-1 -1l-1 -1l-1 -1l-1 -1l-1 -1l-1 -1l-1 -1l-1 -1h-1l-1 -1l-1 -1l-1 -1l-1 -1l-1 -1l-1 -1l-1 -1l-1 -1l-1 -1l-1 -1l-1 -1l-1 -1l-1 -1l-1 -1l-1 -1l-1 -1l-1 -1l-1 -1
l-1 -1l-1 -1l-1 -1l-1 -1l-1 -1l-1 -1l-1 -1l-1 -1l-1 -1l-1 -1l-1 -1l-1 -1l-1 -1l-1 -1l-1 -1l-1 -1l-1 -1l-1 -1l-1 -1l-1 -1l-1 -1l-1 -1l-1 -1l-1 -1l-1 -1l-1 -1l-1 -1l-1 -1l-1 -1l-1 -1l-1 -1l-1 -1l-1 -1l-1 -1l-1 -1l-1 -1l-1 -1l-1 -1l-1 -1l-1 -1l-1 -1l-1 -1
l-1 -1l-1 -1l-1 -1l-1 -1l-1 -1l-1 -1l-1 -1l-1 -1l-1 -1l-1 -1l-1 -1l-1 -1l-1 -1l-1 -1l-1 -1l-1 -1l-1 -1l-1 -1l-1 -1l-1 -1l-1 -1l-1 -1l-1 -1l-1 -1l-1 -1l-1 -1l-1 -1l-1 -1l-1 -1l-1 -1l-1 -1l-1 -1l-1 -1h-1l-1 -1l-1 -1l-1 -1l-1 -1l-1 -1l-1 -1l-1 -1l-1 -1
l-1 -1l-1 -1l-1 -1l-1 -1l-1 -1l-1 -1l-1 -1l-1 -1l-1 -1l-1 -1l-1 -1l-1 -1l-1 -1l-1 -1l-1 -1l-1 -1l-1 -1l-1 -1l-1 -1l-1 -1l-1 -1l-1 -1l-1 -1l-1 -1l-1 -1l-1 -1l-1 -1l-1 -1l-1 -1l-1 -1l-1 -1l-1 -1l-1 -1l-1 -1l-1 -1l-1 -1l-1 -1l-1 -1l-1 -1l-1 -1l-1 -1l-1 -1
l-1 -1l-1 -1l-1 -1l-1 -1l-1 -1l-1 -1l-1 -1l-1 -1l-1 -1l-1 -1l-1 -1l-1 -1l-1 -1l-1 -1l-1 -1l-1 -1l-1 -1l-1 -1l-1 -1l-1 -1l-1 -1l-1 -1l-1 -1l-1 -1l-1 -1l-1 -1l-1 -1l-1 -1l-1 -1l-1 -1l-1 -1l-1 -1l-1 -1l-1 -1l-1 -1l-1 -1l-1 -1l-1 -1l-1 -1l-1 -1l-1 -1z" />
    <glyph glyph-name="zixuanguicon" unicode="&#xe614;" 
d="M1018 485q-16 55 -89 62q-176 17 -200 18q-22 1 -35 10t-21 29q-32 79 -77 180q-15 34 -35 53.5t-52 19.5t-51.5 -20t-34.5 -54q-53 -124 -71 -176q-8 -23 -22 -31.5t-38 -10.5q-39 -2 -200 -17q-71 -7 -87 -57q-19 -53 38 -101q113 -97 151 -125q22 -16 27.5 -34
t-2.5 -42q-7 -23 -52 -201q-1 -72 37.5 -97t93.5 7q72 40 175 108q19 12 34 12.5t34 -11.5q24 -16 51 -32.5t60 -36t52 -31.5q22 -13 38.5 -20t38 -6.5t40.5 14.5q16 10 24.5 24t9 31.5t-1 29.5t-6.5 34q-18 88 -44 180q-11 42 23 69q55 43 150 126q55 48 42 96zM777 355
q-65 -39 -81.5 -91t13.5 -121q7 -17 12 -38t10.5 -51t9.5 -47q-20 12 -62 36.5t-71 42.5t-55 36q-24 15 -42 16t-43 -15q-26 -18 -54.5 -36t-71 -43t-63.5 -38q46 201 52 225q6 21 2 35.5t-21 28.5q-19 16 -179 153q212 17 239 18q34 3 47 36q10 25 91 218q9 -22 28.5 -66.5
t32.5 -76.5t24 -61q9 -28 26 -39t47 -13q19 -1 217 -15q-13 -11 -35 -33t-39 -36.5t-34 -24.5z" />
    <glyph glyph-name="xingqingzhongxinicon" unicode="&#xe615;" 
d="M998 743v-726l-1 -2q-5 -45 -33 -77t-71 -43q-1 -1 -22 -5h-717l-4 1q-43 5 -76 33.5t-44 70.5q0 1 -4 22v726q1 3 1 4q13 86 95 116q1 0 32 7h717q3 -1 4 -1q42 -5 74.5 -33t44.5 -70q0 -1 4 -23zM543 281l4 5q295 304 359 369q3 3 3 8v48q0 27 -18.5 45.5t-45.5 18.5
h-665q-27 0 -45.5 -18.5t-18.5 -45.5v-452l1 -6q87 80 229 214l1 -1l1 -1l1 -1l1 -1l1 -1l1 -1l1 -1h1l1 -1l1 -1l1 -1l1 -1l1 -1l1 -1l1 -1l1 -1l1 -1l1 -1l1 -1l1 -1l1 -1l1 -1l1 -1l1 -1l1 -1l1 -1h1l1 -1l1 -1l1 -1l1 -1l1 -1l1 -1l1 -1l1 -1l1 -1l1 -1l1 -1l1 -1l1 -1
l1 -1l1 -1l1 -1l1 -1h1l1 -1l1 -1l1 -1l1 -1l1 -1l1 -1l1 -1l1 -1l1 -1l1 -1l1 -1l1 -1l1 -1l1 -1l1 -1l1 -1l1 -1l1 -1h1l1 -1l1 -1l1 -1l1 -1l1 -1l1 -1l1 -1l1 -1l1 -1l1 -1l1 -1l1 -1l1 -1l1 -1l1 -1l1 -1l1 -1h1l1 -1l1 -1l1 -1l1 -1l1 -1l1 -1l1 -1l1 -1l1 -1l2 -2
l1 -1l1 -1l1 -1l1 -1l1 -1h1l1 -1l1 -1l1 -1l1 -1l1 -1l1 -1l1 -1l1 -1l1 -1l1 -1l1 -1l1 -1l1 -1l1 -1l1 -1l1 -1h1l1 -1l1 -1l1 -1l1 -1l1 -1l1 -1l1 -1l1 -1l1 -1l1 -1l1 -1l1 -1l1 -1l1 -1l1 -1l1 -1l1 -1h1l1 -1l1 -1l1 -1l1 -1l1 -1l1 -1l1 -1l1 -1l1 -1l1 -1l1 -1
l1 -1l1 -1l1 -1l1 -1l1 -1h1l1 -1l1 -1l1 -1l1 -1l1 -1l1 -1l1 -1l1 -1l1 -1l1 -1l1 -1l1 -1l1 -1l1 -1l1 -1l1 -1l1 -1h1l1 -1l1 -1l1 -1l1 -1l1 -1l1 -1l1 -1l1 -1l1 -1l1 -1l1 -1l1 -1l1 -1l1 -1l1 -1l1 -1l1 -1h1l1 -1l1 -1l1 -1l1 -1l1 -1l1 -1l1 -1l1 -1l1 -1z
M336 327l-2 -1q-149 -147 -215 -213q-3 -2 -3 -7v-58q0 -27 18.5 -45.5t45.5 -18.5h665q27 0 45.5 19t18.5 45v458v6l-1 -1l-1 -1l-1 -1l-1 -1l-1 -1l-1 -1l-1 -1l-1 -1l-1 -1l-1 -1l-1 -1l-1 -1l-1 -1l-1 -1l-1 -1l-1 -1l-1 -1l-1 -1l-1 -1l-1 -1l-1 -1l-1 -1l-1 -1l-1 -1
l-1 -1l-1 -1l-1 -1l-1 -1l-1 -1l-1 -1l-1 -1l-1 -1l-1 -1l-1 -1l-1 -1l-1 -1l-1 -1l-1 -1l-1 -1l-1 -1l-1 -1l-1 -1l-1 -1l-1 -1l-1 -1l-1 -1l-1 -1l-1 -1l-1 -1l-1 -1l-1 -1l-1 -1l-1 -1l-1 -1l-1 -1l-1 -1l-1 -1l-1 -1l-1 -1l-1 -1l-1 -1l-1 -1l-1 -1l-1 -1l-1 -1l-1 -1
l-1 -1l-1 -1l-1 -1l-1 -1l-1 -1l-1 -1l-1 -1l-1 -1l-1 -1l-1 -1l-1 -1l-1 -1l-1 -1l-1 -1l-1 -1l-1 -1l-1 -1l-1 -1l-1 -1l-1 -1l-1 -1l-1 -1l-1 -1l-1 -1l-1 -1l-1 -1l-1 -1l-1 -1l-1 -1l-1 -1l-1 -1l-1 -1v-1l-1 -1l-1 -1l-1 -1l-1 -1l-1 -1l-1 -1l-1 -1l-1 -1l-1 -1
l-1 -1l-1 -1l-1 -1l-1 -1l-1 -1l-1 -1l-1 -1l-1 -1l-1 -1l-1 -1l-1 -1l-1 -1l-1 -1l-1 -1l-1 -1l-1 -1l-1 -1l-1 -1l-1 -1l-1 -1l-1 -1l-1 -1l-1 -1l-1 -1l-1 -1l-1 -1l-1 -1l-1 -1l-1 -1l-1 -1l-1 -1l-1 -1l-1 -1l-1 -1l-1 -1l-1 -1l-1 -1l-1 -1l-1 -1l-1 -1l-1 -1l-1 -1
l-1 -1l-1 -1l-1 -1l-1 -1l-1 -1l-1 -1l-1 -1l-1 -1l-1 -1l-1 -1l-1 -1l-1 -1l-1 -1l-1 -1l-1 -1l-1 -1l-1 -1l-1 -1l-1 -1l-1 -1l-1 -1l-1 -1l-1 -1l-1 -1l-1 -1l-1 -1l-1 -1l-1 -1l-1 -1l-1 -1l-1 -1l-1 -1l-1 -1l-1 -1l-1 -1l-1 -1l-1 -1l-1 -1l-1 -1l-1 -1l-1 -1l-1 -1
l-1 -1l-1 -1l-1 -1l-1 -1v-1l-1 -1l-1 -1l-1 -1l-1 -1l-1 -1l-1 -1l-1 -1l-1 -1l-1 -1l-1 -1l-1 -1l-1 -1l-1 -1l-1 -1l-1 -1l-1 -1l-1 -1l-1 -1l-1 -1l-1 -1l-1 -1l-1 -1l-1 -1l-1 -1l-1 -1l-1 -1l-1 -1l-1 -1l-1 -1l-1 -1l-1 -1l-1 -1l-1 -1l-1 -1l-1 -1l-1 -1l-1 -1
l-1 -1l-1 -1l-1 -1l-1 -1l-1 -1l-1 -1l-1 -1l-1 -1l-1 -1l-1 -1l-1 -1l-1 -1l-1 -1l-1 -1l-1 -1l-1 -1l-1 -1l-1 -1l-1 -1l-1 -1l-1 -1l-1 -1l-1 -1l-1 -1l-1 -1l-1 -1l-1 -1l-1 -1l-1 -1l-1 -1l-1 -1l-1 -1l-1 -1l-1 -1l-1 -1l-1 -1l-1 -1l-1 -1l-1 -1l-1 -1l-1 -1l-1 -1
l-1 -1l-1 -1l-1 -1l-1 -1l-1 -1l-1 -1l-1 -1l-1 -1l-1 -1l-1 -1l-1 -1v-1l-1 -1l-1 -1l-1 -1l-1 -1l-1 -1l-1 -1l-1 -1l-1 -1l-1 -1l-1 -1l-1 -1l-1 -1l-1 -1l-1 -1l-1 -1l-1 -1l-1 -1l-1 -1l-1 -1l-1 -1l-1 -1l-1 -1l-1 -1l-1 -1l-1 -1l-1 -1l-1 -1l-1 -1l-1 -1l-1 -1
l-1 -1l-1 -1l-1 -1l-1 -1l-1 -1l-1 -1l-1 -1l-1 -1l-1 -1l-1 -1l-1 -1l-1 -1l-1 -1l-1 -1l-1 -1l-1 -1l-1 -1l-1 -1l-1 -1l-1 -1l-1 -1l-1 -1l-1 -1l-1 -1l-1 -1l-1 -1l-1 -1l-1 -1l-1 -1l-1 -1l-1 -1l-1 -2l-1 -1l-1 -1l-1 -1l-1 -1l-1 -1l-1 -1l-1 -1l-1 -1l-1 -1l-1 -1
l-1 -1l-1 -1l-1 -1l-1 -1l-1 -1l-1 -1l-1 -1l-1 -1l-1 -1l-1 -1l-1 -1l-1 -1l-1 -1l-2 -2l-1 1l-1 1l-1 1l-1 1l-1 1l-1 1l-1 1l-1 1l-1 1l-1 1l-1 1l-1 1l-1 1l-1 1l-1 1l-1 1l-1 1l-1 1h-1l-1 1l-1 1l-1 1l-1 1l-1 1l-1 1l-1 1l-1 1l-1 1l-1 1l-1 1l-1 1l-1 1l-1 1l-1 1
l-1 1l-1 1l-1 1l-1 1h-1l-1 1l-1 1l-1 1l-1 1l-1 1l-1 1l-1 1l-1 1l-1 1l-1 1l-1 1l-1 1l-1 1l-1 1l-1 1l-1 1l-1 1l-1 1l-1 1h-1l-1 1l-1 1l-1 1l-1 1l-1 1l-1 1l-1 1l-1 1l-1 1l-1 1l-1 1l-1 1l-1 1l-1 1l-1 1l-1 1l-1 1l-1 1l-1 1h-1l-1 1l-1 1l-1 1l-1 1l-1 1l-1 1l-1 1
l-1 1l-1 1l-1 1l-1 1l-1 1l-1 1l-1 1l-1 1l-1 1l-1 1l-1 1h-1l-1 1l-1 1l-1 1l-1 1l-1 1l-1 1l-1 1l-1 1l-1 1l-1 1l-1 1l-1 1l-2 2h-1l-1 1l-1 1l-1 1l-1 1l-1 1l-1 1l-1 1l-1 1l-1 1l-1 1l-1 1l-1 1l-1 1l-1 1l-1 1l-1 1l-1 1l-1 1h-1l-1 1l-1 1l-1 1l-1 1l-1 1l-1 1l-1 1
l-1 1l-1 1l-1 1l-1 1l-1 1l-1 1l-1 1l-1 1l-1 1l-1 1l-1 1h-1l-1 1l-1 1l-1 1l-1 1l-1 1l-1 1l-1 1l-1 1l-1 1l-1 1l-1 1l-1 1l-1 1l-1 1l-1 1l-1 1l-1 1l-1 1l-1 1h-1l-1 1l-1 1l-1 1l-1 1l-1 1l-1 1l-1 1l-1 1l-1 1l-1 1l-1 1l-1 1l-1 1l-1 1l-1 1l-1 1l-1 1l-1 1h-1l-1 1
l-1 1l-1 1l-1 1l-1 1l-1 1l-1 1l-1 1l-1 1l-1 1z" />
    <glyph glyph-name="xiaoxizhiboicon" unicode="&#xe600;" 
d="M647 181v0q15 12 17 31t-9 34l-108 134v234q0 19 -13.5 32t-32.5 13v0q-19 0 -32 -13t-13 -32v-244q-3 -19 9 -34l118 -148q12 -14 30.5 -16.5t33.5 9.5zM818 378.5q0 -15.5 11.5 -27t27 -11.5t26.5 11.5t11 27t-11 26.5t-26.5 11t-27 -11t-11.5 -26.5zM232 621.5
q0 -15.5 11.5 -27t27 -11.5t26.5 11.5t11 27t-11 26.5t-26.5 11t-27 -11t-11.5 -26.5zM450 40q0 -16 11.5 -27t27 -11t26.5 11t11 27t-11 27t-26.5 11t-27 -11t-11.5 -27zM1024 397h-0.5h-0.5q-1 11 -8 19q-10 15 -27.5 17.5t-31.5 -7.5q-22 -16 -17 -42q-2 -60 -18 -119
q-30 -112 -110 -185q-118 -107 -273 -118q-173 -11 -305 110q-28 25 -52 57q16 0 27.5 11.5t12.5 27.5q0 16 -11.5 28.5t-28.5 12.5l-74 2q-9 0 -18 -4q-6 -2 -12 -7q-10 -8 -13 -20l-21 -72q-5 -16 3 -30.5t24 -19.5q13 -4 25.5 1t19.5 16q29 -39 63 -70q2 -1 27 -24
q7 -5 19.5 -14t19.5 -13q28 -15 29 -16q86 -46 186 -57q228 -25 396 129q9 8 18.5 18t21 23.5t17.5 19.5l5 5q13 18 31 45q12 19 12 20q33 59 50 127q15 61 14 129zM84 335q6 12 6 34q-5 189 137 324q113 107 268 114q133 5 249 -70q48 -32 90 -78q11 -13 24 -30
q-16 -1 -28 -12.5t-12 -28.5q-1 -17 11 -29.5t29 -13.5l65 -2q8 -1 17 0l1 0.5l1 0.5q3 0 5 1q1 0 3.5 1.5t3.5 2.5h0.5h0.5l1 1q1 0 4 3v0q6 5 10 11l40 54q11 14 8.5 31t-16.5 27.5t-31 8t-27 -16.5l-6 -7q-19 30 -42 57q-2 2 -48 49q-1 0 -5 4q-6 4 -11.5 9.5t-13 10.5
t-12.5 9q-28 17 -29 18q-126 74 -264 73q-192 -1 -337 -131q-2 -1 -43 -44q-1 0 -5 -4q-6 -9 -17 -23t-15 -19l-3 -6q-28 -44 -28 -45q-64 -118 -59 -254q0 -15 7 -31q9 -21 33 -20q26 0 38 21z" />
    <glyph glyph-name="qfiixiweidongxiang" unicode="&#xe602;" 
d="M508 876q-100 0 -191 -39t-157 -105t-104.5 -157t-38.5 -191t38.5 -191t104.5 -157t157 -105t191 -39t191 39t157 105t105 157t39 191t-39 191t-105 157t-157 105t-191 39zM425 317q-8 3 -26 16q-1 0 -10.5 9t-19.5 18t-24 16.5t-25 7.5q-15 0 -36 -12t-31 -20t-15 -14
q-28 -26 -48 -30q-28 -4 -50.5 0t-54.5 18q-1 0 -3 1q-4 28 -4 57q0 117 57.5 216t156.5 156.5t216 57.5q43 0 84 -8q-14 -8 -18 -13q-22 -27 1 -65q18 -31 19.5 -67t-11.5 -47q-6 -7 -29.5 -13.5t-34.5 -8.5q-41 -4 -60 -13.5t-31 -32.5q-10 -21 5 -53q2 -3 27 -46
q24 -42 28 -68q7 -40 -12 -53q-9 -7 -28.5 -9t-22.5 0zM508 -46q-17 0 -34 1q-42 58 13 102q32 27 87 39.5t116 4.5q6 0 26.5 0.5t23.5 0.5q62 2 91 16.5t33 53.5q9 53 41 61q4 1 7 2q-46 -125 -156.5 -203t-247.5 -78z" />
    <glyph glyph-name="vipcankao" unicode="&#xe603;" 
d="M46 650h932q10 0 17 7.5t7 17.5v49q0 10 -7 17t-17 7h-932q-10 0 -17 -7t-7 -17v-49q0 -10 7 -17.5t17 -7.5zM757 258h49v49h-49v-49zM1002 454v13v28t-2.5 22.5t-7.5 19.5t-15 10.5t-24 4.5h-882q-14 0 -24 -4.5t-15 -10.5t-7.5 -19.5t-2.5 -22.5v-28v-13v-392v-13v-28
t2.5 -22t7.5 -19t15 -11t24 -5h882q14 0 24 5t15 11t7.5 19t2.5 22v28v13v392zM349 62h-115l-114 343h114l57 -196l58 196h114zM610 62h-98v343h98v-343zM904 307v-147h-105h-42v-98h-98v343h147h98v-98z" />
    <glyph glyph-name="bianxie" unicode="&#xe604;" 
d="M987 820q-9 9 -19.5 17t-25 18.5t-21.5 15.5h-20q-2 -2 -111 -92l1 -2l1 -1l1 -1l1 -1l1 -1l1 -1l1 -1l1 -1l1 -1l2 -1l1 -1l1 -1l1 -1l1 -1l1 -1l1 -1l1 -1l1 -1l1 -1l1 -1l1 -1l1 -1l1 -1l1 -1l1 -1l1 -1l1 -2l1 -1l1 -1l1 -1l1 -1l1 -1l1 -1l1 -1l1 -1l1 -1l1 -1l1 -1
l1 -1l1 -1l1 -1l1 -1l1 -1l1 -1l2 -1l1 -1l1 -1l1 -1l1 -1l1 -1l1 -1l1 -1l1 -1l1 -1l1 -1l1 -1l1 -1l1 -1l1 -1l1 -1l1 -1l1 -1l1 -1l1 -1l1 -1l1 -1l1 -1l1 -1l1 -1l1 -1l1 -1l1 -1l1 -1l1 -1l1 -1l1 -1l1 -1l1 -1l1 -1l1 -1l1 -1l1 -1l1 -1l1 -1l1 -1l1 -1l1 -1l1 -1
l1 -1l1 -1l1 -1l1 -1l1 -1l1 -1l1 -1l1 -1l1 -1l1 -1l1 -1l1 -1l1 -1l1 -1l1 -1l1 -1l1 -1l1 -1l1 -1l1 -1l1 -1l1 -1l1 -1l1 -1l1 -1l1 -1l1 -1l1 -1l1 -1l1 -1l1 -1l1 -1l1 -1l1 -1l1 -1l2 -2q66 67 71 73q20 21 20 48t-21 47zM931 578q-59 -61 -65 -67q-17 -16 -17 -41
q1 -102 1 -455q0 -25 -4 -29t-28 -4q-555 0 -663 -1q-18 0 -25 6t-7 25q1 117 1 634q0 26 4.5 30.5t31.5 4.5h420q24 0 30 5q10 10 73 74l-9 2q-452 1 -573 0q-26 0 -43.5 -18.5t-17.5 -45.5v-732q0 -30 19 -49t50 -19q385 -1 755 0q30 0 50 20t20 49v587q0 1 -3 24z
M856 602l-1 1l-1 1l-1 1l-1 1l-1 1l-1 1l-1 1l-1 1l-1 1l-1 1l-1 1h-1l-1 1v1l-1 1l-1 1l-1 1l-1 1l-1 1l-1 1l-1 1l-1 1l-1 1l-1 1l-1 1l-1 1l-1 1l-1 1l-1 1l-1 1l-1 1l-1 1l-1 1l-1 1l-1 1l-1 1l-1 1l-1 1l-1 1l-1 1l-1 1l-1 1l-1 1l-1 1l-1 1v1l-1 1l-1 1l-1 1l-1 1
l-1 1l-1 1l-1 1l-1 1l-1 1l-1 1l-1 1l-1 1l-1 1l-1 1l-1 1l-1 1l-1 1l-1 1l-1 1l-1 1l-1 1l-1 1l-1 1l-1 1l-1 1l-1 1l-1 1l-1 1l-1 1l-1 1l-1 1l-1 1l-1 1l-1 1l-1 1l-1 1l-1 1l-1 1l-1 1l-1 1l-1 1l-1 1l-1 1l-1 1l-1 1l-1 1l-1 1l-1 1l-1 1l-1 1l-1 1l-1 1l-1 1l-1 1
l-1 1l-1 1l-1 1l-1 1l-1 1l-1 1l-1 1v1l-1 1l-1 1l-1 1l-1 1l-1 1l-1 1l-1 1l-1 1l-1 1l-2 2l-369 -372l1 -1l1 -1l1 -1l1 -1l1 -1l1 -1l1 -1l1 -1l1 -1l1 -1l1 -1l1 -1l1 -1l1 -1l1 -1l1 -1l1 -1l1 -1l1 -1l1 -1l1 -1l1 -1l1 -1l1 -1l1 -1l1 -1l1 -1l1 -1l1 -1l1 -1l1 -1
l1 -1l1 -1l1 -1l1 -1l1 -1l1 -1l1 -1l1 -1l1 -1l1 -1l1 -1l1 -1l1 -1l1 -1l1 -1l1 -1l1 -1l1 -1l1 -1l1 -1l1 -1l1 -1l1 -1l1 -1l1 -1l1 -1l1 -1l1 -1l1 -1l1 -1l1 -1l1 -1l1 -1l1 -1l1 -1l1 -1l1 -1l1 -1l1 -1l1 -1l1 -1l1 -1l1 -1l1 -1l1 -1l1 -1l1 -1l1 -1l1 -1l1 -1
l1 -1l1 -1l1 -1l1 -1l1 -1l1 -1l2 -1l1 -1l1 -1l1 -1l1 -1l1 -1l1 -1l1 -1l1 -1l1 -1l1 -1l1 -1l1 -1l1 -1l1 -1l1 -1l1 -1l1 -1l1 -1l1 -1l1 -1l1 -1l1 -1l1 -1l1 -1l1 -1l1 -1l1 -1l1 1l1 1l1 1l1 1l1 1l1 1l1 1l1 1l1 1l1 1l1 1l1 1l1 1l1 1l1 1l1 1l1 1l1 1l1 1l1 1l1 1
l1 1l1 1l1 1l1 1l1 1l1 1l1 1l1 1l1 1l1 1l1 1l1 1l1 1l1 1l1 1l1 1l1 1l1 1l1 1l1 1l1 1l1 1l1 1l1 1l1 1l1 1l1 1l1 1l1 1l1 1l1 1l1 1l1 1l1 1l1 1l1 1l1 1l1 1l1 1l1 1l1 1l1 1l1 1l1 1l1 1l1 1l1 1l1 1l1 1l1 1l1 1l1 1l1 1l1 1l1 1l1 1l1 1l1 1l1 1l1 1l1 1l1 1l1 1
l1 1l1 1l1 1l1 1l1 1l1 1l1 1l1 1l1 1l1 1l1 1l1 1l1 1l1 1l1 1l1 1l1 1l1 1l1 1l1 1l1 1l1 1l1 1l1 1l1 1l1 1l1 1l1 1l1 1l1 1l1 1l1 1l1 1l1 1l1 1l1 1l1 1l1 1l1 1l1 1l1 1l1 1l1 1l1 1l1 1l1 1l1 1l1 1l1 1l1 1l1 1l1 1l1 1l1 1l1 1l1 1l1 1l1 1l1 1l1 1l1 1l1 1l1 1
l1 1l1 1l1 1l1 1l1 1l1 1l1 1l1 1l1 1l1 1l1 1l1 1l1 1l1 1l1 1l1 1l1 1l1 1l1 1l1 1l1 1l1 1l1 1l1 1l1 1l1 1l1 1l1 1l1 1l1 1l1 1l1 1l1 1l1 1l1 1l2 1l1 1l1 1l1 1l1 1l1 1l1 1l1 2l1 1l1 1l1 1l1 1l1 1l1 1l1 1l1 1l1 1l1 1l1 1l1 1l1 1l1 1l1 1l1 1l1 1l1 1l1 1l1 1
l1 1l1 1l1 1l1 1l1 1l1 1l1 1l1 1l1 1l1 1l1 1l1 1l1 1l1 1l1 1l1 1l1 1l1 1l1 1l1 1l1 1l1 1l1 1l1 1l1 1l1 1l1 1l1 1l1 1l1 1l1 1l1 1l1 1l1 1l1 1l1 1l1 1l1 1l1 1l1 1l1 1l1 1l1 1l1 1l1 1l1 1l1 1l1 1l1 1l1 1l1 1l1 1l1 1l1 1l1 1l1 1l1 1l1 1l1 1l1 1l1 1l1 1l1 1
l1 1l1 1l1 1l1 1l1 1l1 1l1 1l1 1l1 1l1 1l1 1l1 1l1 1l1 1l1 1l1 1l1 1l1 1l1 1l1 1l1 1l1 1l1 1l1 1l1 1l1 1l1 1l1 1l1 1l1 1l1 1l1 1l1 1l1 1l1 1l1 1l2 1l1 1l1 1l1 1l1 1l1 1l1 1l1 1l1 1l1 1l1 1l1 1l1 1l1 1l1 1l1 1l1 1l1 2l1 1l1 1l1 1l1 1l1 1l1 1l1 1l1 1l1 1
l1 1l1 1l1 1l1 1l1 1l1 1l1 1l1 1l1 1l1 1l1 1l1 1l1 1l1 1l1 1l1 1l1 1l1 1l1 1l1 1l1 1l1 1l1 1l1 1l1 1l1 1l1 1l1 1l1 1l1 1zM301 161q93 23 149 37l-112 112q-10 -39 -37 -149z" />
    <glyph glyph-name="caijingrili" unicode="&#xe605;" 
d="M1000 612q0 48 -27.5 82t-74.5 44q-13 2 -27 3.5t-34 2t-31 1.5v104q0 12 -4.5 18t-17.5 5q-41 -1 -82 0q-13 1 -17.5 -4.5t-4.5 -18.5q1 -13 0.5 -41t0.5 -41q0 -14 -5 -19.5t-18 -5.5q-145 1 -289 0q-14 0 -19 5.5t-4 19.5q0 11 -0.5 39t0.5 40q1 16 -5.5 21.5
t-21.5 5.5q-37 -3 -68 0q-18 1 -25 -5.5t-6 -24.5q1 -8 1 -101h-64q-57 -1 -94 -38t-37 -95v-580q0 -58 37 -94.5t95 -36.5h710q59 0 95.5 36.5t36.5 94.5v583zM875 56q0 -2 -1 -31h-721q-2 26 -2 27q0 363 -1 404q0 19 7.5 25.5t26.5 6.5q351 -1 657 0q21 0 28 -7t7 -27
q-1 -42 -1 -398zM783 348h-103h-106q-13 0 -18.5 -5t-5.5 -19q1 -91 0 -209q0 -12 5 -17.5t18 -5.5q19 1 95 1t117 1q5 0 12 7t8 12q0 41 0.5 117.5t0.5 94.5q0 13 -5 18t-18 5z" />
    <glyph glyph-name="dazongjiaoyi" unicode="&#xe606;" 
d="M514.5 875q-99.5 0 -190 -38.5t-156 -104t-104.5 -156.5t-39 -190q0 -124 61 -234q4 -15 15.5 -24t26.5 -9q18 0 31 13t13 31v5q0 11 -8 23q-51 91 -51 196q0 109 53.5 201t146 146t201.5 54t201 -54t145.5 -146t53.5 -201t-53.5 -201.5t-145.5 -146t-201 -53.5
q-130 0 -236 77q-14 14 -33 14q-18 0 -31 -13t-13 -31v-4q0 -15 9 -26.5t23 -15.5q127 -90 281 -90q100 0 190.5 38.5t156 104t104 156t38.5 190t-38.5 190.5t-104 156.5t-156 104t-190 38.5zM379 281l-90 -26q30 -159 188 -175v-61h60v60q172 13 183 165q5 133 -183 178
v159q63 -15 78 -98l91 26q-28 142 -169 158v53h-60v-53q-161 -14 -169 -161q-10 -117 169 -161v-182q-89 15 -98 118zM537 330q102 -30 90 -83q0 -79 -90 -86v169zM398 506q3 66 79 77v-146q-83 27 -79 69z" />
    <glyph glyph-name="dingdan" unicode="&#xe607;" 
d="M544.5 602q42.5 0 72.5 31t30 75q0 50 -37 82q3 -12 3 -21q0 -30 -20.5 -51.5t-49.5 -21.5t-49.5 21.5t-20.5 51.5q0 7 2 17q-33 -32 -33 -78q0 -44 30 -75t72.5 -31zM541.5 737q28.5 0 48.5 20.5t20 50t-20 50t-48.5 20.5t-48.5 -20.5t-20 -50t20 -50t48.5 -20.5z
M58 105l165 -66q-5 12 -22 123t-30.5 214.5t-13.5 104.5zM730 -112l10 162l-370 -38zM842 781l-180 -28q17 -31 17 -67q0 -58 -39.5 -98.5t-95 -40.5t-95 40.5t-39.5 98.5q0 15 3 30l-222 -34q8 -204 102 -631l2 -9l691 121q-22 22 -58 178t-61 295t-25 145zM322 442l293 44
l9 -33l-293 -43zM385 194l-11 38l362 53l10 -37zM363 302l-14 37l465 63l15 -37z" />
    <glyph glyph-name="dujiabaodao" unicode="&#xe608;" 
d="M811 474q0 84 -32.5 158.5t-87 125t-125 80t-145.5 28.5q-108 0 -198 -51.5t-142 -141t-53 -196.5q-1 -76 27.5 -147t79 -125.5t124.5 -87.5t158 -33q107 -1 197 49.5t143 140.5t54 200zM512 754q16 -5 17 -17.5t-3 -26.5q-49 31 -50 32q5 13 15.5 14.5t20.5 -2.5z
M363 750q35 31 69 12q-5 -27 -13 -67q-48 20 -51 22q-29 12 -5 33zM460 274q-8 -48 -11 -65q-5 -30 -37 -29q-109 1 -192.5 79.5t-92.5 187.5q-4 52 6.5 97.5t32.5 73.5q22 -34 50.5 -61.5t66 -49.5t65 -35.5t74.5 -33.5q-4 -15 -4 -16q-19 -49 19 -81q29 -25 23 -67z
M510 196q-1 0 -14 2q3 3 8 8.5t8 8.5t7 5q67 41 112 131q10 21 5 31t-28 18q-7 3 -15 7.5t-18 11t-15 9.5q-7 4 -19.5 12t-20.5 13t-20 10.5t-21.5 8t-22.5 2.5t-26 -3q-14 -4 -28 2t-17 21q-2 15 -9.5 21t-22.5 6q6 27 15 33t32 -2q4 -2 11.5 1.5t8.5 7.5q24 72 95 84
q5 1 10 3.5t11 6t9 4.5q-4 7 -9 20t-6 15q2 0 9 -2t9 -2.5l8 -2t8.5 -1t7 0.5t8 2t7 4.5t7.5 6.5q2 1 8.5 -0.5t9.5 -4.5q128 -118 95 -276q-33 -166 -197 -223zM969 39q-39 42 -162 164q-21 21 -42 0l-69 -69q-21 -21 -2 -40q132 -132 168 -166q34 -32 81 -10q44 20 50 70
q-2 6 -6 17.5t-8 20t-10 13.5z" />
    <glyph glyph-name="gainianneiye" unicode="&#xe609;" 
d="M388 452q-17 0 -29 -12t-12 -29v-162l-45 -63h-5q-32 0 -54 -22t-22 -53.5t22 -54t53.5 -22.5t54 22.5t22.5 53.5q0 15 -6 28l54 74q7 10 7 24v175q0 17 -11.5 29t-28.5 12zM563 99v410q0 17 -12 29t-29 12t-28.5 -12t-11.5 -29v-410q-36 -23 -36 -65q0 -31 22.5 -53.5
t54 -22.5t53.5 22.5t22 53.5q0 42 -35 65zM748 186h-5l-46 63v162q0 17 -12 29t-28.5 12t-28.5 -12t-12 -29v-175q0 -14 8 -24l53 -73q-5 -14 -5 -29q0 -31 22 -53.5t53.5 -22.5t54 22.5t22.5 54t-22.5 53.5t-53.5 22zM804 666q-10 1 -17 9q-29 39 -72.5 61.5t-92.5 22.5
h-13q-8 -1 -15 4q-61 47 -139 47q-67 0 -123.5 -36t-84.5 -96q-5 -12 -18 -13q-75 -11 -126 -69t-51 -135q0 -85 60.5 -145t144.5 -60h45l5 6v75h-50q-51 0 -87.5 36.5t-36.5 88t36.5 88t87.5 36.5q4 0 11 -1q15 -1 27 7.5t15 23.5q13 50 53.5 81.5t91.5 31.5q61 0 105 -43
q15 -15 36 -10q13 2 26 2q36 0 66 -19t46 -51q12 -26 40 -23q7 1 13 1q51 0 87.5 -36.5t36.5 -88t-36.5 -88t-87.5 -36.5h-50v-75l5 -6h45q85 0 145 60t60 145q0 80 -54.5 139t-133.5 66z" />
    <glyph glyph-name="gaojixiweishuju" unicode="&#xe60e;" 
d="M603 155q21 49 15 113q-6 71 -60 114q-39 31 -92 48q-25 8 -73.5 21.5t-58.5 17.5q-43 12 -64 29q-16 13 -19.5 35t8.5 39q20 29 67 33q48 4 92 -14q26 -10 69 -32q24 -12 48.5 -9t40.5 20q23 24 19 56t-33 50q-64 41 -138 53q-11 2 -11 14q1 1 1 22h-1v26q-2 24 -20 41
t-43 17q-27 0 -44.5 -16.5t-18.5 -37.5q-2 -16 -2 -55q0 -9 -9 -10q-1 0 -8 -2q-88 -22 -133 -87q-39 -57 -31 -140q6 -64 46 -103q32 -31 74 -46q24 -8 125 -39q71 -22 93 -35q24 -14 28.5 -40.5t-13.5 -47.5q-16 -19 -47 -26q-65 -13 -140 15q-28 10 -81 45
q-25 16 -53.5 10.5t-44.5 -28.5q-16 -25 -10 -53t31 -46q77 -51 162 -68q11 -2 11 -13q0 -28 1 -54q2 -22 19.5 -38.5t44.5 -16.5q26 -1 44 17t19 44v39q1 11 2.5 12.5t11.5 4.5q50 11 66 18q79 31 110 103zM868 158h-77.5t-73.5 1q-18 0 -27 -16q-24 -48 -64 -92
q-56 -63 -132 -97q-14 -7 -11 -19q2 -12 18 -12q75 0 147 25q147 52 235 185q8 12 2 17q-7 8 -17 8zM495 812q51 -24 92 -59q64 -55 105 -133q7 -13 22 -13h76h79q12 0 17 9q4 6 -4 17q-72 110 -187 165q-92 44 -195 45q-11 0 -15 -8q-8 -15 10 -23zM722 554q21 -67 27 -137
q1 -11 5.5 -15t16.5 -4h81h77q17 0 23 6.5t2 22.5v2q-5 63 -34 134q-5 12 -18 12h-81.5h-82.5q-23 0 -16 -21zM936 367h-83h-84q-10 0 -14.5 -3.5t-5.5 -13.5l-4 -40q-7 -29 -23 -97q-6 -22 15 -22h83t83 -1q12 0 17 11q0 1 3.5 9.5t4.5 12.5q21 59 27 124q2 20 -19 20z
M719 418q-5 75 -33 147q-4 10 -15 10h-54q-9 1 -14 -7q-26 -41 -71 -41q-3 0 -50 5q0 -62 1 -78q0 -5 7 -8q51 -22 79 -44q4 -4 11 -4h120q11 0 15.5 4.5t3.5 15.5zM646 190q3 1 26 1q10 0 14 10q29 72 33 147q1 19 -15 19h-99q16 -26 16 -28q32 -63 17 -139q-1 -6 1 -8
t7 -2zM510 -7q63 37 106 90q12 14 38 52q9 14 -6 22q-7 3 -13.5 1.5t-9.5 -8.5q-6 -15 -8 -19q-39 -73 -123 -104q-15 -5 -12 -16q-1 -15 7.5 -20t20.5 2zM493 735q42 -19 73 -35q53 -27 52 -85q0 -8 7 -8h10q15 0 20 8.5t-6 21.5q-47 61 -60 75q-31 34 -82 62q-11 5 -18 1
t-7 -15v-5.5v-4.5q-1 -10 11 -15z" />
    <glyph glyph-name="guojiaduixiweidongxiang" unicode="&#xe611;" 
d="M991 673q0 82 -52 135.5t-134 53.5q-274 1 -578 0q-81 0 -133.5 -52.5t-52.5 -133.5q-1 -307 0 -585q0 -78 52 -129t131 -51h290q29 0 91 0.5t109.5 0.5t91.5 -2q77 -2 132 54t54 132q-1 6 -1 288.5v288.5zM336 106q-1 -25 -5.5 -29t-29.5 -4q-35 0 -41 5.5t-6 40.5v482
q0 18 6 25t24 6q41 -1 47.5 -7.5t6.5 -46.5v-221h-1v-237q0 -11 -1 -14zM717 225l-29 -27l7 -40q1 -6 -4 -10q-3 -2 -7 -2q-2 0 -5 1l-36 18l-38 -18q-2 -1 -4 -1q-4 0 -7 2q-5 4 -4 10l8 40l-30 27q-5 4 -3 10.5t9 7.5l41 8l18 36q3 6 9.5 6t9.5 -6l18 -36l41 -8q7 -1 9 -7
t-3 -11zM777 381q0 -1 -4 -11q-31 10 -32 10q-88 41 -192 -14q-13 -7 -27.5 -13t-34 -13.5t-28.5 -11.5q-3 -1 -5 -1q-20 1 -83 5q-6 64 -6 68q-1 48 0 201q0 1 2 29q41 -8 44 -8q45 -5 100 26q67 38 126 47q22 1 32.5 1.5t30.5 -4.5t29.5 -8.5t29.5 -10.5q5 -2 8 -3
q4 -1 7 -6.5t3 -9.5q1 -93 0 -273z" />
    <glyph glyph-name="xingqingzhongxin" unicode="&#xe616;" 
d="M512 869h350q62 0 97.5 -36t35.5 -98v-699q0 -62 -36 -97.5t-98 -35.5h-699q-62 0 -97.5 36t-35.5 98v699q0 62 36 97.5t98 35.5h349zM539 322l10 6l318 318q8 9 9 16q7 43 -13 66.5t-57 23.5q-43 -1 -588 -1q-36 0 -53.5 -17.5t-17.5 -53.5v-360q0 -1 3 -31l1 1l1 1l1 1
l1 1l1 1l1 1l1 1l1 1l1 1l1 1l1 1l1 1l1 1l1 2l1 1l1 1l1 1l1 1l1 1l1 1l1 1l1 1l1 1l1 1l1 1l1 1l1 1l1 1l1 1l1 1l1 1l1 1l1 1l1 1l1 1l1 1l1 1l1 1l1 1l1 1l1 1l1 1l1 1l1 1l1 1l1 1l1 1l1 1l1 1l1 1l1 1l1 1l1 2l1 1l1 1l1 1l1 1l1 1l1 1l1 1l1 1l1 1l1 1l1 1l1 1l1 1
l1 1l1 1l1 1l1 1l1 1l1 1l1 1l1 1l1 1l1 1l1 1l1 1l1 1l1 1l1 1l1 1l1 1l1 1l1 1l1 1l1 1l1 1l1 1l1 1l1 1l1 1l1 1v1l1 1l1 1l1 1l1 1l1 1l1 1l1 1l1 1l1 1l1 1l1 1l1 1l1 1l1 1l1 1l1 1l1 1l1 1l1 1l1 1l1 1l1 1l1 1l1 1l1 1l1 1l1 1l1 1l1 1l1 1l1 1l1 1l1 1l1 1l1 1l1 1
l1 1l1 1l1 1l1 1l1 1l1 1l1 1v1l1 1l1 1l1 1l1 1l1 1l1 1l1 1l1 1l1 1l1 1l1 1l1 1l1 1l1 1l1 1l1 1l1 1l1 1l1 1l1 1l1 1l1 1l1 1l1 1l1 1l1 1l1 1l1 1l1 1l1 1l1 1l1 1l1 1l1 1l1 1l1 1v1l1 1l1 1l1 1l1 1l1 1l1 1l1 1l1 1l1 1l1 1l1 1l1 1l1 1l1 1l1 1l1 1l1 1l1 1l1 1
l1 1l1 1l1 1l1 1l1 1l1 1l1 1l1 1l1 1l1 1l1 1l1 1l1 1l1 1l1 1l1 1l1 1l1 1l1 1q103 -106 179 -182zM361 330l-206 -206q-6 -7 -7 -13q-7 -44 12.5 -67.5t57.5 -23.5q42 1 588 1q36 0 53.5 17.5t17.5 53.5v360q0 1 -3 30l-1 -1l-1 -1l-1 -1l-1 -1l-1 -1l-1 -1l-1 -1l-1 -1
l-1 -1l-1 -1l-1 -1l-1 -1l-1 -1l-1 -1l-1 -1l-1 -1l-1 -1l-1 -2l-1 -1l-1 -1l-1 -1l-1 -1l-1 -1l-1 -1l-1 -1l-1 -1l-1 -1l-1 -1l-1 -1l-1 -1l-1 -1l-1 -1l-1 -1l-1 -1l-1 -1l-1 -1l-1 -1l-1 -1l-1 -1l-1 -1l-1 -1l-1 -1l-1 -1l-1 -1l-1 -1l-1 -1l-1 -1l-1 -1l-1 -1l-1 -1
l-1 -1l-1 -1l-1 -1l-1 -1l-1 -1l-1 -1l-1 -1l-1 -1l-1 -1l-1 -1l-1 -1l-1 -1l-1 -1l-1 -1l-1 -1l-1 -1l-1 -1l-1 -1l-1 -1l-1 -1l-1 -1l-1 -1l-1 -1l-1 -1l-1 -1l-1 -1l-1 -1l-1 -1l-1 -1l-1 -1l-1 -1l-1 -1l-1 -1l-1 -1l-1 -1l-1 -1l-1 -1l-1 -1l-1 -1l-1 -1l-1 -1l-1 -1
l-1 -1l-1 -1l-1 -1l-1 -1l-1 -1l-1 -1l-1 -1l-1 -1l-1 -1l-1 -1l-1 -1l-1 -1l-1 -1l-1 -1l-1 -1l-1 -1l-1 -1l-1 -1l-1 -1l-1 -1l-1 -1l-1 -1l-1 -1l-1 -1l-1 -1l-1 -1l-1 -1l-1 -1l-1 -1l-1 -1l-1 -1l-1 -1l-1 -1l-1 -1l-1 -2l-1 -1l-1 -1l-1 -1l-1 -1l-1 -1l-1 -1l-1 -1
l-1 -1l-1 -1l-1 -1l-1 -1l-1 -1l-1 -1l-1 -1l-1 -1l-1 -1l-1 -1l-1 -1l-1 -1l-1 -1l-1 -1l-1 -1l-1 -1l-1 -1l-1 -1l-1 -1l-1 -1l-1 -1l-1 -1l-1 -1l-1 -1l-1 -1l-1 -1l-1 -1l-1 -1l-1 -1l-1 -1l-1 -1l-1 -1l-1 -1l-1 -1l-1 -1l-1 -1l-1 -1l-1 -1l-1 -1l-1 -1l-1 -1l-1 -1
l-1 -1l-1 -1l-1 -1l-1 -1l-1 -1l-1 -1l-1 -1l-1 -1l-1 -1l-1 -1l-1 -1l-1 -1l-1 -1l-1 -1l-1 -1l-1 -1l-1 -1l-1 -1l-1 -1l-1 -1l-1 -1l-1 -1l-1 -1l-1 -1l-1 -1l-1 -1l-1 -1l-1 -1l-1 -1l-1 -1l-1 -1l-1 -1h-1l-1 -1l-1 -1l-1 -1l-1 -1l-1 -1l-1 -1l-1 -1l-1 -1v-1l-1 -1
l-1 -1l-1 -1l-1 -1l-1 -1l-1 -1l-1 -1l-1 -1l-1 -1l-1 -1l-1 -1l-1 -1l-1 -1l-1 -1l-1 -1l-1 -1l-1 -1l-1 -1l-1 -1l-1 -1l-1 -1l-1 -1l-1 -1l-1 -1l-1 -1l-1 -1l-1 -1l-1 -1l-1 -1l-1 -1l-1 -1l-1 -1l-1 -1l-1 -1l-1 -1l-1 -1l-1 -1l-1 -1l-1 -1l-1 -1l-1 -1l-1 -1l-1 -1
l-1 -1l-1 -1l-1 -1l-1 -1l-1 -1l-1 -1l-1 -1l-1 -1l-1 -1l-1 -1l-1 -1l-1 -1l-1 -1l-1 -1l-1 -1l-1 -1l-1 -1l-1 -1l-1 -1l-1 -1l-1 -1l-1 -1l-1 -1l-1 -1l-1 -1l-1 -1l-1 -1l-1 -1l-1 -1l-1 -1l-1 -1l-1 -1l-1 -1l-1 -1l-1 -1l-1 -1l-1 -1l-1 -1l-1 -1l-1 -1l-1 -1l-1 -1
l-1 -1l-1 -1l-1 -1l-1 -1l-1 -1l-1 -1l-1 -1l-1 -1l-1 -1l-1 -1l-1 -1l-1 -1l-1 -1l-1 -1l-1 -1l-1 -1l-1 -1l-1 -1v-1l-1 -1l-1 -1l-1 -1l-1 -1l-1 -1l-1 -1l-1 -1l-1 -1l-1 -1l-1 -1l-1 -1l-2 -2q-86 86 -180 184z" />
    <glyph glyph-name="jinqijigouzhongcanggu" unicode="&#xe617;" 
d="M512.5 867q-98.5 0 -188 -38t-154.5 -103t-103 -154.5t-38 -187.5q0 -123 60 -232q4 -14 15 -23t26 -9q18 0 31 12.5t13 31.5v4q0 11 -8 22q-51 91 -51 194q0 108 53 199.5t144.5 144.5t199 53t199 -53t144.5 -144.5t53 -199t-53 -199t-144.5 -144.5t-198.5 -53
q-129 0 -234 76q-13 14 -31 14q-19 0 -31.5 -12.5t-12.5 -31.5v-4q0 -14 9 -25.5t22 -15.5q126 -89 278 -89q99 0 188.5 38.5t154 103t103 154t38.5 188t-38.5 188t-103 154.5t-154 103t-188 38zM560 664h-274q-6 0 -10 -4.5t-4 -10.5v-426v-86v-15h14h274h32h178h17v17v84
v263q0 7 -5 12t-12 5h-178q-7 0 -12.5 -5t-5.5 -12v163q0 6 -4 10.5t-10 4.5zM402 218h-70v69h70v-69zM402 364h-70v70h70v-70zM402 500h-70v70h70v-70zM520 218h-69v69h69v-69zM520 364h-69v70h69v-70zM520 500h-69v70h69v-70zM645 420h70v-70h-70v70zM645 279h70v-70h-70
v70z" />
    <glyph glyph-name="jinqiyouzizhongcanggu" unicode="&#xe618;" 
d="M637 452q-66 0 -112.5 -46.5t-46.5 -112.5t46.5 -113t112.5 -47t112.5 47t46.5 113t-46.5 112.5t-112.5 46.5zM710 243q-8 -49 -57 -53v-29h-33v29q-25 4 -56 14l9 39q29 -12 52 -14q38 -5 40 19q1 9 -14.5 18.5t-34.5 16.5t-34.5 20.5t-15.5 31.5q-1 27 15 42t40 17v30
h33v-29q24 0 48 -10l-10 -37q-28 11 -46 11q-36 0 -37 -16q0 -12 11 -19t29 -11t21 -5q16 -7 26 -17q19 -18 14 -48zM470.5 651q-81.5 0 -138.5 -28.5t-57 -68.5t57 -68.5t138.5 -28.5t139 28.5t57.5 68.5t-57.5 68.5t-139 28.5zM560 524q-9 -30 -71 -32v-18h-40v18
q-30 2 -69 8l12 24q36 -7 63 -9q47 -3 50 12q0 4 -8.5 7.5t-22 6.5t-29.5 7t-30 8t-23.5 10.5t-8.5 13.5q-2 17 18 26t50 10v19h40v-18q30 0 59 -7l-12 -22q-34 7 -57 7q-44 0 -45 -10q0 -8 13.5 -12t35.5 -6.5t26 -2.5q20 -5 32 -11q23 -11 17 -29zM532 432q-30 -5 -61 -5
q-70 0 -123 21.5t-68 54.5q-5 -11 -5 -22q0 -40 57 -68.5t139 -28.5h15q19 29 46 48zM661 459q6 11 6 22t-5 22q-11 -23 -42 -42q1 1 4 1h4q17 0 33 -3zM471 363q-70 0 -123 21.5t-68 54.5q-5 -11 -5 -22q0 -39 54 -67t132 -30q4 23 14 43h-2.5h-1.5zM459 299q-65 2 -115 23
t-64 53q-5 -11 -5 -22q0 -39 54.5 -67.5t133.5 -29.5q-4 18 -4 37v4v2zM280 311q-5 -11 -5 -22q0 -40 57 -68.5t139 -28.5h21q-14 20 -23 43q-69 0 -122 21.5t-67 54.5zM509 173q-20 -2 -38 -2q-70 0 -123 21.5t-68 54.5q-5 -11 -5 -22q0 -40 57 -68.5t139 -28.5q46 0 88 10
q-28 13 -50 35zM514.5 868q-98.5 0 -188 -38.5t-154 -103t-103 -154t-38.5 -187.5q0 -123 60 -232q4 -14 15.5 -23t25.5 -9q19 0 31.5 12.5t12.5 30.5v5q0 11 -7 22q-51 91 -51 194q0 108 53 199t144 144t199 53t199 -53t144 -144t53 -198.5t-53 -199t-144 -144.5t-199 -53
q-129 0 -233 76q-14 14 -32 14t-31 -12.5t-13 -31.5v-4q0 -14 9 -25.5t22 -15.5q126 -89 279 -89q98 0 187.5 38.5t154.5 103t103 154t38 188t-38 188t-103 154t-154.5 103t-188 38.5z" />
    <glyph glyph-name="jingjishuju" unicode="&#xe619;" 
d="M315 24v463q0 14 -9.5 23.5t-22.5 9.5h-96q-13 0 -22.5 -10t-9.5 -23v-463h160v0zM519 24v662q0 14 -9.5 24t-22.5 10h-96q-13 0 -22.5 -10t-9.5 -24v-662h160v0zM723 24v293q0 14 -9.5 24t-22.5 10h-96q-13 0 -22.5 -10t-9.5 -24v-293h160v0zM927 24v463q0 14 -9.5 23.5
t-22.5 9.5h-96q-13 0 -22.5 -10t-9.5 -23v-463h160v0zM956 -18h-845v752q0 12 -8.5 20.5t-20.5 8.5t-20.5 -8.5t-8.5 -20.5v-809h903q12 0 20.5 8.5t8.5 20t-8.5 20t-20.5 8.5v0z" />
    <glyph glyph-name="longhubang" unicode="&#xe61a;" 
d="M924 312h-221q-10 0 -14 -2v289q0 27 -19 46t-45 19h-232q-26 0 -44.5 -19t-18.5 -46v-136q-3 0 -8 1t-7 1h-221q-27 0 -46 -19t-19 -46v-415q0 -27 18.5 -45t44.5 -18h832q25 0 44 19t19 44v262q0 27 -19 46t-44 19zM327 -20h-235l-3 3v414l3 3h233l2 -3v-417zM628 -20
h-240v619l2 2h235l3 -2v-619zM924 -20h-235v267l2 2h230l3 -2v-264l2 -2zM247 528v0h-60q2 3 4 3q3 1 7.5 4.5t7 5t7.5 5t7 4.5q5 3 15 12q5 5 10 15t5 19q0 7 -5 22q-4 10 -12 15q-10 6 -20 9q-24 8 -43 0l-7 -3.5t-8 -5t-5 -5.5q-5 -5 -10 -20q-2 -7 -2 -24v-5h39v5v10
q0 1 1 4.5t1 4.5q1 1 2 3q2 2 3 2q3 3 7 3q3 0 12 -5q5 -5 5 -12t-2 -10l-7 -7q-5 -5 -10 -7q-1 -2 -5 -4.5t-5 -3.5q-2 -2 -8 -5.5t-9 -6.5l-14 -14q-3 -3 -10 -17q-5 -15 -5 -25v-4h114v38zM487 693h39v153h-31v-5q0 -2 -5 -12l-8 -7q-1 -1 -4.5 -2.5t-4.5 -2.5h-12h-8
v-32h34v-92zM786 373q8 -8 19 -12q15 -5 24 -5q15 0 22 3q10 3 19 9q10 10 13 17q4 15 4 22q0 13 -7 24q-1 1 -2.5 3l-3 4t-4.5 3l8 7q5 5 5 22q0 10 -5 20q-3 4 -12 14q-8 7 -17 7q-17 6 -39 0q-7 -2 -17 -12q-3 -2 -12 -17q-5 -14 -5 -22v-4h39v4q0 10 4.5 15t12.5 5
q5 0 9.5 -5t4.5 -10t-2 -7l-5 -5q-1 0 -3.5 -1t-3.5 -1h-10h-5v-32h5h10q7 0 9 -2q5 0 5 -5q-2 5 -2 -2.5t-5 -12.5t-12 -5t-7 3q-5 0 -5 5q-2 1 -3 3.5t-2 3.5q0 1 -1.5 4t-1.5 6v5h-36v-5q0 -17 5 -25q0 -9 10 -19z" />
    <glyph glyph-name="neibujiaoyi" unicode="&#xe61b;" 
d="M512.5 861q-97.5 0 -186 -38t-152.5 -102t-102 -152.5t-38 -186.5q0 -121 59 -229q4 -14 15.5 -23t26.5 -9q18 0 30.5 13t12.5 31v4q0 11 -8 22q-50 90 -50 192q0 107 52.5 197t142.5 142.5t196.5 52.5t197 -52.5t143 -142.5t52.5 -196.5t-52.5 -197t-143 -143
t-196.5 -52.5q-127 0 -231 76q-13 14 -31 14t-31 -13t-13 -31l1 -4q0 -14 8.5 -25.5t21.5 -15.5q125 -88 276 -88q97 0 185.5 38t152.5 102t102 152.5t38 186t-38 186t-102 152.5t-152.5 102t-186 38zM373 318l-107 -78l107 -86v43h81v-103h115v103h97h30h22v76h-22v0h-127
v57h73v-45l108 86l-108 79v-43v-3h-49l145 249h-116q-102 -222 -104 -228h-3q-22 55 -105 228h-123l141 -249h-93h-13h-40v-75h53v1h119v-57h-81v2v43z" />
    <glyph glyph-name="shangcheng" unicode="&#xe61c;" 
d="M992 608q0 -5 -0.5 -8.5l-1 -7t-1.5 -6.5l-13 -35l-21 -60l-22 -64q-14 -41 -18 -50q-6 -19 -14 -32.5t-18 -20.5q-20 -16 -48 -16h-514l15 -86h493q47 0 47 -40q0 -19 -9 -33q-9 -15 -37 -15h-513q-7 0 -13 1.5t-11 3t-9 4.5q-13 9 -21 23q-5 6 -8.5 13.5t-7.5 16.5
q-5 21 -7 31l-6 29l-10 55l-14 74l-17 83l-42 218h-73q-15 0 -24 6q-10 8 -17 17q-2 7 -5 12.5t-4 11t-1.5 10.5t-0.5 10q0 19 13 32q7 5 16 8.5t20 3.5h99q19 0 31 -5l10.5 -7t9.5 -8q6 -9 8 -18l6 -17q1 -5 3 -16v-6l4 -28l6 -37h460l-192 -192l-127 131
q-10 11 -24.5 10.5t-25.5 -11.5t-11.5 -26t9.5 -25l156 -161q10 -10 24.5 -8.5t25.5 12.5q2 2 6.5 7l4.5 5l258 258h106v0q28 0 43 -7q8 -3 13 -7.5t9 -10.5q6 -10 5 -22zM274 69q5 7 11 14q5 4 10 7l9 7q5 3 10 5q5 1 9 2.5t8.5 2.5t9.5 1.5t9 0.5v0q19 0 36 -7
q16 -6 29 -19q7 -7 11.5 -14t7.5 -15q8 -17 8 -35t-8 -34q-6 -15 -19 -29q-13 -12 -29.5 -19t-35.5 -7t-36 7q-16 7 -29 19q-13 14 -19 29q-7 17 -7 34.5t7 35.5q3 7 8 14zM674 52q7 15 20 28q5 7 12.5 12t15.5 8q5 2 11 3.5t12 2t13 0.5v0q8 0 17.5 -1.5t17.5 -4.5
q17 -7 29 -20q13 -13 21 -28q6 -16 6 -34q0 -9 -1.5 -18t-4.5 -17q-8 -15 -21 -29q-11 -12 -29 -18q-16 -8 -35.5 -8t-35.5 8q-17 7 -28 18q-13 14 -20 29q-7 16 -7 35q0 8 1.5 17t5.5 17z" />
    <glyph glyph-name="shangpinshuju" unicode="&#xe61d;" 
d="M829 506l-124 80q-28 17 -28 50v6h-468q-36 0 -64.5 -25t-32.5 -60l-75 -581q-5 -35 17.5 -60t57.5 -25h711q35 0 57 25t18 60zM633.5 585q9.5 0 16.5 -7t7 -16.5t-7 -16.5t-16.5 -7t-16.5 7t-7 16.5t7 16.5t16.5 7zM313 585q10 0 17 -7t7 -16.5t-7 -16.5t-17 -7t-16.5 7
t-6.5 16.5t6.5 16.5t16.5 7zM655 275l-73 -69q-5 -4 -4 -13v-2l18 -98v-6q0 -9 -5 -15q-6 -7 -15 -7q-7 0 -13 4l-88 47q-3 2 -8 2t-7 -2l-89 -47q-6 -4 -12 -4h-1q-9 0 -15 7q-5 6 -5 15q0 3 1 6l18 98v2q0 9 -5 13l-72 69q-9 8 -9 17.5t8 15.5q5 4 13 5l99 14q3 0 7 3t6 5
l43 91q3 6 7 9q6 5 13.5 5t12.5 -5q5 -4 7 -9l44 -91q1 -2 5 -5t7 -3l99 -14q8 -1 14 -5q8 -6 7.5 -15.5t-8.5 -17.5zM968 615l-174 111q-15 9 -32.5 5.5t-27.5 -18.5l-10 -17q-25 17 -49 17q-16 0 -31 -8q-10 63 -48 109q-53 63 -128.5 63t-128.5 -63q-52 -62 -52 -149h34
q0 74 44 127q43 51 102.5 51t102.5 -51q43 -53 43 -127h35q0 11 -1 22q13 9 28 9q19 0 40 -15l-14 -22q-10 -15 -6 -32.5t19 -26.5l174 -111q15 -9 32.5 -5t26.5 19l34 53q10 15 6 32.5t-19 26.5zM755.5 680q6.5 0 11 -4.5t4.5 -10.5t-4.5 -10.5t-11 -4.5t-10.5 4.5t-4 10.5
t4 10.5t10.5 4.5z" />
    <glyph glyph-name="shichangguanzhudu" unicode="&#xe61e;" 
d="M907 144h-731l-3 484q0 34 -17.5 55t-47.5 21t-49 -22t-19 -54v-576q0 -30 26 -43t63 -13h778q32 0 54.5 21.5t22.5 52.5t-22.5 52.5t-54.5 21.5zM612 232v0l6 -11l357 354l-85 82l-272 -274l-177 177v-3h6l-171 -174v-168l171 183z" />
    <glyph glyph-name="shijianneiye" unicode="&#xe61f;" 
d="M855 875l-8 5h-645q-9 -6 -10 -6q-97 -25 -97 -125v-726q0 -54 23.5 -84.5t75.5 -45.5q1 0 8 -5h645q10 5 11 6q97 25 97 125v725q0 54 -24 85t-76 46zM839 38q0 -17 -6 -23t-23 -6q-290 2 -570 0q-18 0 -24 6.5t-6 23.5q1 53 1 344q0 294 -1 345q0 18 6.5 24.5t24.5 5.5
q287 -1 568 0q18 1 24 -5.5t6 -24.5q-1 -332 0 -690zM367 510h156h161q14 -1 19 4.5t4 17.5v40.5t-1 39.5q0 4 -6 10.5t-10 6.5q-164 2 -330 0q-4 0 -10 -6t-6 -11q-1 -14 -1 -39.5t-0.5 -39.5t5 -19t19.5 -4zM707 423q1 19 -19 19q-164 -1 -327 0q-19 0 -18 -19
q1 -47 0 -75q-1 -12 4 -17.5t18 -4.5h159q141 0 158 -1q15 0 20.5 6t4.5 20q-1 25 0 72zM560 258h-94h-102q-12 0 -17 -4.5t-4 -16.5q1 -31 0 -80q-1 -19 18 -19h203q11 0 15 4t4 15q-1 50 0 79q1 13 -4.5 17.5t-18.5 4.5z" />
    <glyph glyph-name="shoucangjia" unicode="&#xe620;" 
d="M628 153q-16 17 -56 58.5t-68.5 71.5t-54.5 59q-26 31 -23.5 63.5t30.5 56.5q22 19 55.5 14.5t57.5 -28.5q7 -7 98 -99l1 1l1 1l1 1l1 1l1 1l1 1l1 1l1 1l1 1l1 1l1 1l1 1l1 1l1 1l1 1l1 1l1 1l1 1l1 1l1 1l1 1l2 2l1 1l1 1l1 1l1 1l1 1l1 1l1 1l1 1l1 1l1 1l1 1l1 1l1 1
l1 1l1 1l1 1l1 1l1 1l1 1l1 1l1 1l1 1l1 1l1 1l1 1l1 1l1 1l1 1l1 1l1 1l1 1l1 1l1 1l1 1l1 1l1 1l1 1l1 1l1 1l1 1l1 1l1 1l1 1l1 1l1 1l1 1l1 1l1 1l1 1l1 1l1 1l1 1l1 1l1 1l1 1l1 1l1 1l1 1l1 1l1 1l1 1l1 1l1 1l1 1l1 1l1 1l1 1l1 1l1 1l1 1l1 1l1 1l1 1l1 1l1 1l1 1
l1 1l1 1l1 1l1 1l1 1l1 1l1 1l1 1l1 1l1 1l1 1l1 1l1 1l1 1l1 1l1 1l1 1l1 1l1 1l1 1l1 1l1 1l1 1l1 1v1l1 1l1 1l1 1l1 1l1 1l1 1l1 1l1 1l1 1l1 1l1 1l1 1l1 1l1 1l1 1l1 1l1 1l1 1l1 1l1 1l1 1l1 1l1 1l1 1l1 1l1 1l1 1l1 1l1 1l1 1l1 1l1 1l1 1l1 1l1 1l1 1l1 1l1 1l1 1
l2 2l-15 4q-157 24 -193 28q-24 3 -35 27q-16 31 -46.5 93t-44.5 92q-19 37 -46 37q-28 0 -47 -39q-50 -105 -93 -187q-4 -8 -12.5 -14t-16.5 -7q-91 -16 -215 -33q-37 -5 -46 -32q-8 -25 22 -54q131 -127 146 -141q22 -20 17 -50q-4 -22 -11 -63t-13 -74.5t-12 -62.5
q-7 -38 16 -56q21 -17 58 3q169 89 179 95q28 15 55 0q36 -20 104.5 -55.5t80.5 -42.5q34 -18 57 3q14 13 14 34.5t-15 37.5q-17 19 -50.5 54t-40.5 42zM996 506q-6 5 -11 7t-11 -2t-7.5 -5.5l-8.5 -8.5q-21 -21 -70 -70.5t-75 -75.5q-8 -8 -122 -119q-27 34 -29 36
q-80 82 -142 142q-10 9 -27 10q-3 0 -8 -5.5t-5 -9.5q1 -13 12 -24q5 -5 181 -183q23 -23 47 1q167 168 269 270q6 7 9.5 11.5t3.5 11.5t-6 14z" />
    <glyph glyph-name="shujuneiye" unicode="&#xe621;" 
d="M997 -40q0 -25 -17.5 -42.5t-42.5 -17.5h-848q-25 0 -43 17.5t-18 42.5v0q0 25 18 43t43 18h848q25 0 42.5 -18t17.5 -43v0zM532 868h-202q-14 0 -19 -12.5t4 -21.5l44 -44l-225 -224q-15 -15 -15 -36.5t15 -36.5l43 -43q15 -15 36.5 -15t36.5 15l224 224l44 -43
q9 -9 22 -4t13 18v203q0 8 -6 14t-15 6v0zM180 384q-25 0 -43 -18t-18 -42v-182q0 -25 18 -43t43 -18h60q25 0 43 18t18 43v182q0 24 -18 42t-43 18h-60zM603 142q0 -25 -17.5 -43t-42.5 -18h-61q-25 0 -42.5 18t-17.5 43v363q0 25 17.5 43t42.5 18h61q25 0 42.5 -18
t17.5 -43v-363zM906 142q0 -25 -17.5 -43t-42.5 -18h-61q-25 0 -42.5 18t-17.5 43v605q0 25 17.5 43t42.5 18h61q25 0 42.5 -18t17.5 -43v-605z" />
    <glyph glyph-name="shujuzhongxin" unicode="&#xe622;" 
d="M704 638q0 -22 16 -37.5t38 -15.5t37.5 15.5t15.5 37.5t-15.5 37.5t-37.5 15.5t-38 -15.5t-16 -37.5zM704 354q0 -22 16 -37.5t38 -15.5t37.5 15.5t15.5 37.5t-15.5 38t-37.5 16t-38 -16t-16 -38zM31 230q0 -34 18.5 -52.5t52.5 -18.5h354v-106v0h-248q-21 0 -28 -7
t-7 -29q0 -27 8 -49t27 -22h213q12 -17 40 -26t56 -9q57 0 81 35h213q20 0 29 16.5t9 41.5q0 49 -38 49h-248v0v106h354q34 0 52.5 18.5t18.5 52.5v521q0 34 -24 58t-59 24h-791q-35 0 -59 -24t-24 -58v-521zM173 727h673q19 0 27.5 -8.5t8.5 -27.5v-106q0 -19 -8.5 -27.5
t-27.5 -8.5h-673q-20 0 -29.5 8t-9.5 26v101q0 20 10 31.5t29 11.5zM173 443h673q19 0 27.5 -8.5t8.5 -26.5v-107q0 -19 -8.5 -27t-27.5 -8h-673q-19 0 -27.5 8t-8.5 27v107q0 19 8.5 27t27.5 8z" />
    <glyph glyph-name="xiangsixinwen" unicode="&#xe623;" 
d="M825 -115q-8 21 -26.5 35t-42 14t-42.5 -14t-27 -35h-106q-8 21 -26.5 35t-42.5 14t-42.5 -14t-26.5 -35h-106q-8 21 -27 35t-42.5 14t-42 -14t-26.5 -35h-102v927q0 20 14.5 34.5t34.5 14.5h732q20 0 34.5 -14.5t14.5 -34.5v-927h-102v0zM219 104h220v415h-220v-415z
M805 690h-586v-73h586v73zM805 519h-269v-73h269v73zM805 349h-269v-74h269v74zM805 178h-269v-74h269v74v0z" />
    <glyph glyph-name="yingyebuyemian" unicode="&#xe624;" 
d="M974 554q-1 1 -1 2q0 3 -1 6l-81 185q-10 31 -37.5 49t-63.5 18h-565q-36 0 -62 -17.5t-36 -47.5l-87 -189q0 -2 -1 -5q-9 -29 -9 -59q0 -52 27 -97t73 -69v0v0v0v0q38 -21 89 -21q88 1 144 68q56 -67 144 -67q87 1 142 67q57 -67 145 -67q52 0 90 21q46 25 72.5 69.5
t26.5 96.5q0 29 -9 57v0v0v0zM877 282q-14 0 -24 -10.5t-10 -24.5v-205q0 -8 -5.5 -14t-13.5 -6h-647q-8 0 -13.5 5.5t-5.5 13.5l-1 202q0 15 -10 25t-24 10v0q-14 0 -24 -10t-10 -25v-202q0 -36 25.5 -61.5t62.5 -25.5h647q36 0 62 25.5t26 62.5v205q0 14 -10.5 24.5
t-24.5 10.5v0v0zM798 516h-582q-14 0 -25.5 14t-11.5 30t11.5 30t25.5 14h582q14 0 26 -14t12 -30t-12 -30t-26 -14v0v0z" />
    <glyph glyph-name="zhengquanshujushichang" unicode="&#xe625;" 
d="M872 -72h-701v95q30 1 31 1h128h110q25 0 29.5 4.5t4.5 30.5v72h-33q-291 0 -345 -1q-17 0 -23 6t-6 22q1 328 0 649q0 18 6.5 24.5t23.5 6.5q224 -1 853 -1q11 0 15 -0.5t9 -5.5t5 -16q-1 -108 -1 -670l-2 -14h-30h-345q-18 1 -24.5 -5t-6.5 -24v-2q0 -57 10 -66.5
t68 -9.5h1h1h1h1h1h1h1h1h1h1h1h1h1h1h1h1h1h1h1h1h1h1h1h1h1h1h1h1h1h1h1h1h1h1h1h1h1h1h1h1h1h1h1h1h1h1h1h1h1h1h1h1h1h1h1h1h1h1h1h1h1h1h1h1h1h1h1h1h1h1h1h1h1h1h1h1h1h1h1h1h1h1h1h1h1h1h1h1h1h1h1h1h1h1h1h2h1h1h1h1h1h1h1h1h1h1h1h1h1h1h1h1h1h1h1h1h1h1h1h1h1h1h1
h1h1h1h1h1h1h1h1h1h1h1h1h1h1h1h1h1h1h1h1h1h1h1h1h1h1h1h1h1h1h1h1h1h1h1h1h1h1h1h1h1h1h1h1h1h1h1h1h1h1h1h1h1h1h1h1h1h1h1h1h10h30v-96zM520 228q281 0 330 -1q18 0 25 6t6 25q-1 219 0 452q1 18 -6 25t-25 7q-317 -2 -656 -1q-17 1 -23.5 -5.5t-6.5 -23.5
q1 -205 0 -455q0 -17 6 -23.5t23 -6.5q49 1 327 1zM637 474q10 17 27 47t25 45l45 -27q28 -15 39 -23l-1 -1v-1l-1 -1v-1l-1 -1l-1 -1v-1l-1 -1v-1l-1 -1v-1l-1 -1v-1l-1 -1l-1 -1v-1l-1 -1v-1l-1 -2v-1l-1 -1v-1l-1 -1l-1 -1v-1l-1 -1v-1l-1 -1v-1l-1 -1v-1l-1 -1l-1 -1v-1
l-1 -1v-1l-1 -1v-1l-1 -1v-1l-1 -1l-1 -1v-1l-1 -1v-1l-1 -1v-1l-1 -1v-1l-1 -1v-1l-1 -1l-1 -1v-1l-1 -1v-1l-1 -1v-1l-1 -1v-1l-1 -1l-1 -1v-1l-1 -1v-1l-1 -1v-1l-1 -1l-1 -1v-1l-1 -1l-1 -1v-1l-1 -1v-1l-1 -1v-1l-1 -1v-1l-1 -1v-1l-1 -1l-1 -1v-1l-1 -1v-1l-1 -1v-1
l-1 -1v-1l-1 -1v-1l-1 -1l-1 -1v-1l-1 -1v-1l-1 -1v-1l-1 -1v-1l-1 -1l-1 -1v-1l-1 -1v-1l-1 -1v-1l-1 -1v-1l-1 -1v-1l-1 -1l-1 -1v-1l-1 -1v-1l-1 -1v-1l-1 -1v-1l-1 -1l-1 -1v-1l-1 -1v-1l-1 -1v-1l-1 -1v-1l-1 -1v-1l-1 -1l-1 -1v-1l-1 -1v-1l-1 -1v-1l-1 -1v-1l-1 -1
v-1l-1 -1l-1 -1v-1l-1 -1v-1l-1 -1v-1l-1 -1v-1l-1 -1l-1 -1v-1l-1 -1v-1l-1 -1v-1l-1 -1v-1l-1 -1l-1 -1v-1l-1 -1v-1l-1 -1v-1l-1 -1v-1l-1 -1v-1l-1 -1l-1 -1v-1l-1 -1v-1l-1 -1l-1 -2l-265 159q-33 -60 -52 -91l-1 1h-1l-1 1l-1 1h-1l-1 1h-1l-1 1l-1 1h-1l-1 1h-1l-1 1
l-1 1h-1l-1 1h-1l-1 1l-1 1h-1l-1 1h-1l-1 1l-1 1h-1l-1 1h-1l-1 1l-1 1h-1l-1 1h-1l-1 1h-1l-1 1l-1 1h-1l-1 1h-1l-1 1l-1 1h-1l-1 1h-1l-1 1l-1 1l-1 1h-1l-1 1h-1l-1 1l-1 1h-1l-1 1h-1l-1 1h-1l-1 1l-1 1h-1l-1 1h-1l-1 1l-1 1h-1l-1 1h-1l-1 1h-1l-1 1l-1 1h-1l-1 1
h-1l-1 1l-1 1h-1l-1 1h-1l-1 1l-1 1h-1l-1 1h-1v1l1 1l1 1v1l1 1v1l1 1v1l1 1l1 1v1l1 1v2l1 1v1l1 1v1l1 1l1 1v1l1 1v1l1 1v1l1 1v1l1 1l1 1v1l1 1v1l1 1v1l1 1v1l1 1l1 1v1l1 1v1l1 1v1l1 1v1l1 1l1 1v1l1 1v1l1 1v1l1 1v1l1 1l1 1v1l1 1v1l1 1v1l1 1v1l1 1l1 1v1l1 1v1
l1 1v1l1 1v1l1 1v1l1 1l1 1v1l1 1v1l1 1v1l1 1v1l1 1l1 1v1l1 1v1l1 1v1l1 1v1l1 1l1 1v1l1 1v1l1 1l1 1v1l1 1v1l1 1v1l1 1v1l1 1l1 1v1l1 1v1l1 1v1l1 1v1l1 1l1 1v1l1 1v1l1 1v1l1 1v1l1 1v1l1 1l1 1v1l1 1v1l1 1v1l1 1v1l1 1v1l1 1l1 1v1l1 1v1l1 1v1l1 1v1l1 1l1 1v1
l1 1v1l1 1v1l1 1v1l1 1v1l1 1l1 1v1l1 1v1l1 1v1l1 1v1l1 1l1 1v1l1 1v1l1 1v1l1 1v1l1 1l1 1v1l1 1v1l1 1l1 -1l1 -1h1l1 -1h1l1 -1l1 -1h1l1 -1h1l1 -1l1 -1h1l1 -1h1l1 -1l1 -1h1l1 -1h1l1 -1l1 -1h1l1 -1h1l1 -1l1 -1h1l1 -1h1l1 -1l1 -1h1l1 -1h1l1 -1l1 -1h1l1 -1h1
l1 -1l1 -1h1l1 -1h1l1 -1l1 -1h1l1 -1h1l1 -1l1 -1h1l1 -1h1l1 -1l1 -1h1l1 -1h1l1 -1l1 -1h1l1 -1h1l1 -1l1 -1h1l1 -1h1l1 -1l1 -1h1l1 -1h1l1 -1l1 -1h1l1 -1h1l1 -1l1 -1h1l1 -1h1l1 -1l1 -1h1l1 -1h1l1 -1l1 -1h1l1 -1h1l1 -1l1 -1h1l1 -1h1l1 -1l1 -1h1l1 -1h1l1 -1
l1 -1h1l1 -1h1l1 -1l1 -1l2 -1h1v-1h1l1 -1l1 -1h1l1 -1h1l1 -1l1 -1h1l1 -1h1l1 -1l1 -1h1l1 -1h1l1 -1l1 -1h1l1 -1h1l1 -1h1l1 -1l1 -1h1l1 -1h1l1 -1l1 -1h1l1 -1h1l1 -1l1 -1h1l1 -1h1l1 -1l1 -1h1l1 -1h1l1 -1l1 -1h1l1 -1h1l1 -1l1 -1h1l1 -1h1l1 -1l1 -1h1l1 -1h1
l1 -1h1l1 -1l1 -1h1l1 -1h1l1 -1l1 -1h1l1 -1h1l1 -1l1 -1h1l1 -1h1l1 -1l1 -1h1l1 -1h1l1 -1l1 -1h1l1 -1h1l1 -1l1 -1h1l1 -1h1l1 -1l1 -1h1l1 -1h1l1 -1l1 -1h1l1 -1h1l1 -1l1 -1h1l1 -1h1l1 -1l1 -1h1l1 -1h1l1 -1h1l1 -1l1 -1h1l1 -1h1l1 -1l1 -1h1l1 -1h1l1 -1l1 -1h1
l1 -1h1l1 -1l1 -1h1l1 -1h1l1 -1l1 -1h1l1 -1h1l1 -1l1 -1h1l1 -1h1l1 -1l1 -1h1l1 -1h1l1 -1l1 -1z" />
    <glyph glyph-name="zuireshijian" unicode="&#xe626;" 
d="M710 611q-1 -38 -18 -77t-33 -59l-17 -21q0 44 -13.5 89.5t-32.5 79t-38 60.5t-32 41l-13 14q-1 -11 -3 -29t-19 -68t-46 -92q-18 62 -52 120.5t-68.5 97.5t-68 69.5t-53 45t-20.5 14.5q28 -98 34.5 -183t-4 -151.5t-24.5 -124.5t-27 -129t-13 -137q0 -56 24 -108
t66 -92.5t105 -64.5t136 -24q85 0 149.5 12t103.5 31t66 50t40 59.5t23 68.5q31 119 -10.5 253t-141.5 255zM722 157q0 -1 -1 -4q-4 -17 -7 -26t-10.5 -25t-17 -24.5t-27 -20t-40 -17t-56 -10t-75.5 -3.5q-86 0 -139.5 51.5t-53.5 117.5q0 64 25 172q6 28 9 42.5t8.5 44
t6 46.5t2.5 50t-1 55q33 -46 58 -105t34 -96l9 -36q69 96 87 141q11 -22 19.5 -86.5t8.5 -134.5q7 6 19 17t42 45t51 69q80 -141 49 -263z" />
    <glyph glyph-name="zuixinshijian" unicode="&#xe627;" 
d="M556 30l-83 131h-24v-165h19v131l83 -131h19v165h-19v-131h5zM95 452h-34q-15 0 -24.5 -9.5t-9.5 -24.5v-34q0 -15 9.5 -24.5t24.5 -9.5h39q2 -26 8 -51.5t11 -37.5l5 -13h63l63 -271h97l-39 169h34l-14 68h-29l-10 34h63v306h-228q-20 -49 -29 -102v0zM813 728
q-29 -31 -65.5 -58.5t-88.5 -55t-123 -44t-150 -16.5v-306q117 0 218 -39h209v519v0zM628 74h88v19h-88v48h93v20h-112v-165h116v19h-97v59v0zM910 481v277q0 33 -34 33q-4 0 -14 -7.5t-20 -21.5v-553h68v102q33 0 60 25t27 58q0 35 -27 61t-60 26v0zM900 54q-2 -6 -4.5 -17
t-5.5 -17q-1 7 -3 18.5t-4.5 21.5t-6.5 18l-24 83h-25l-24 -112q0 -1 -2.5 -10.5t-2.5 -18.5q0 5 -2.5 17t-2.5 17l-24 112h-19l43 -165h10l34 126q0 2 2.5 8t2.5 11q0 -9 5 -19l34 -126h19l44 165h-20l-24 -112v0z" />
    <glyph glyph-name="qushilinghangzhe" unicode="&#xe601;" 
d="M848 265q-8 46 -8 48q-81 267 -325 443q-2 2 -13 9.5t-14 10t-11.5 9.5t-11 11t-7.5 11.5t-5.5 14.5t-0.5 16t2 19v3t-1 3q-21 5 -22 4q-11 -22 -30.5 -39t-45 -33.5t-38.5 -29.5q-1 -1 -24 -20q1 -1 4 -7q71 13 135 27q-2 -12 -3 -32t-3.5 -34t-6.5 -25
q-106 -252 -257 -455q-1 -1 -17 -27q0 -1 1.5 -4t2.5 -4h1h1h1h1l1 1h1h1h1h1h1h1h1h1l1 1h1h1h1h1h1h1h1h1l1 1h1h1h1h1h1h1h1l1 1h1h1h1h1h1h1h1h1l1 1h1h1h1h1h1h1h1h1l1 1h1h1h1h1h1h1h1l1 1h1h1h1h1h1h1h1h1l1 1h1h1h1h1h1h1h1h1l1 1h1h1h1h1h1h1h1l1 1h1h1h1h1h1h1h1
h1l1 1h1h1h1h1h1h1h1h1l1 1h1h1h1h1h1h1h1l1 1h1h1h1h1h1h1h1h1l1 1h1h1h1h1h1h1h1h1l1 1h1h1h1h1h1h1h1l1 1h1h1h1h1h1h1h1h1l1 1h1h1h1h1h1h1h1h1l1 1h1h1h1h1h1h1h1l1 1h1h1h1h1h1h1h1h1l1 1h1h1h1h1h1h1h1h1l1 1h1h1h1h1h1h1h1l1 1h1h1h1h1h1h1h1h1l1 1h1h1h1h1h1h1h1h1
l1 1h1h1h1h1h1h1h1l1 1h1h1h1h1h1h1h1h1l1 1h1h1h1h1h1h1h1h1l1 1h1h1h1h1h1h1h1l1 1h1h1h1h1h1h1h1h1l1 1h1h1h1h1h1h1h1h1l1 1h1h1h1h1h1h1h1l1 1h1h1h1h1h1h1h1h1l1 1h1h1h1h1h1h1h1l1 1h1h1h1h1h1h1h1h1l1 1h1h1h1h1h1h1h1h1l1 1h1h1h1h1h1h1h1l1 1h1h1h1h1h1h1h1h1l1 1
h1h1h1h1h2h1h1l1 1h1h1h1h1h1h1h1h1l1 1h1h1h1h1h1h1h1l1 1h1h1h1h1h1h1h1h1l1 1h1h1h1h1h1h1h1h1l1 1h1h1h1h1h1h1h1l1 1h1h1h1h1h1h1h1h1l1 1h1h1h1h1h1h1h1h1l1 1h1v0h1h1h1h1h1l1 1h1h1h1h1h1h1h1h1l1 1h1h1h1h1h1h1h1h1l1 1h1h1h1h1h1h1h1l1 1h1h1h1h1h1h1h1h1l1 1h1h1
h1h1h1h1h1h1l1 1h1h1h1h1h1h1h1l1 1h1h1h1h1h1h1h1h1l1 1h1h1h1h1h1h1h1h1l1 1h1h1h1h1h1h1h1h1l1 1h1h1h1h1h1h1h1l1 1h1h1h1h1h1h1h1h1l1 1h1h1h1h1h1h1h1h1l1 1h1h1h1h1h1h1h1l1 1h1h1h1h1h1h1h1h1l1 1h1h1h1h1h1h1h1h1l1 1h1h1h1h1h1h1h1l1 1h1h1h1h1h1h1h1h1l1 1h1h1h1
h1h1h1h1h1l1 1h1h1h1h1h1h1h1l1 1h1h1h1h1h1h1h1h1l1 1h1h1h1h1h1h1h1h1l1 1h1h1h1h1h1h1h1l1 1h1h1h1h1h1h1h1h1l1 1h1h1h1h1h1h1h1h1l1 1h1h1h1h1h1h1h1l1 1h1h1h1h1h1h1h1h1l1 1h1h1h1h1h1h1h1h1l1 1h1h1h1h1h1h1h1l1 1h1h1h1h1h1h1h1h1l1 1h1h1h1h1h1h1h1h1l1 1h1h1h1h1
h1h1h1l1 1h1h1h1h1h1h1h1h1l1 1h1h1h1h1h1h1h1h1l1 1h1h1h1h1h1h1h1l1 1h1h1h1h1h1h1h1h1l1 1h1zM454 741q61 -249 0 -499v499zM110 35q7 3 16 6q188 81 377 27q93 -26 216 -5q111 18 215 117q3 3 68 60q-2 3 -4 7l-941 -96v-1v-1l1 -1v-1l1 -1v-1v-1l1 -1v-1l1 -1v-1v-1
l1 -1v-1l1 -1v-1v-1l1 -1v-2v-1l1 -1v-1l1 -1v-1v-1l1 -1v-1l1 -1v-1v-1l1 -1v-1v-1l1 -1v-1l1 -1v-1v-1l1 -1v-1v-1l1 -1v-1l1 -1v-1v-1l1 -1v-1v-1l1 -1v-1l1 -1v-1v-1l1 -1v-1v-1l1 -1v-1l1 -1v-1v-1l1 -1v-1v-1l1 -1v-1l1 -1v-1v-1l1 -1v-1v-1l1 -1v-1l1 -1v-2l1 -1v-1
v-1l1 -1v-1l1 -1v-1v-1l1 -1v-1v-1l1 -1v-1l1 -1v-1v-1l1 -1v-1v-1l1 -1v-1l1 -2v-1v-1l1 -1v-1v-1l1 -1v-1v-1l1 -1v-1l1 -1v-1v-1l1 -1v-1q9 1 10 1zM904 107q-187 -126 -426 -67q-187 47 -358 -38q-25 -12 -47 -31q-4 -2 -5 -10t1 -13q1 -2 8 -3.5t12 -1.5q3 1 25 11
q166 74 359 29q88 -20 165 -17q159 6 268 104q5 5 10.5 11.5t12.5 15t10 12.5q-1 2 -4 5.5t-3 4.5q-27 -11 -28 -12z" />
    <glyph glyph-name="fanhuianniu" unicode="&#xe629;" 
d="M305 -128l-98 98l415 414l-415 414l98 98l512 -512z" />
    <glyph glyph-name="anzhuo" unicode="&#xe62c;" 
d="M409 310v-95q0 -18 12.5 -31t30.5 -13t30.5 13t12.5 31v95h67v-95q0 -18 13 -31t30 -13q18 0 30.5 13t12.5 31v95h39q14 0 23.5 10t9.5 24v313h-384v0v-313q0 -14 10 -24t24 -10h39zM620 820v0l35 51q3 6 -1.5 9.5t-8.5 -1.5l-37 -54q-36 15 -80 15q-42 0 -79 -15l-37 54
q-4 5 -9 1.5t-1 -9.5l35 -51q-43 -20 -70 -56t-31 -79h385q-4 43 -31.5 78.5t-69.5 56.5zM447 738q-9 0 -15.5 6.5t-6.5 15.5t6.5 15t15.5 6t15 -6t6 -15t-6 -15.5t-15 -6.5zM612 738q-9 0 -15.5 6.5t-6.5 15.5t6.5 15t15.5 6t15 -6t6 -15t-6 -15.5t-15 -6.5zM268 399
q18 0 30.5 13t12.5 31v172q0 18 -13 31t-30.5 13t-30 -13t-12.5 -31v-172q-1 -18 12 -31t31 -13zM832 443v172q0 18 -12.5 31t-30.5 13t-30.5 -13t-12.5 -31v-172q0 -18 12.5 -31t30.5 -13t30.5 13t12.5 31zM90 85l-75 -197h29l18 54h82l20 -54h29l-75 197h-28zM70 -36
l30 82q1 5 3 14v0q2 -10 3 -14l30 -82h-66zM289 32q-30 0 -46 -27h-1v23h-25v-140h25v80q0 18 11 30.5t27 12.5q32 0 32 -44v-80h24v86q0 29 -12 43q-12 16 -35 16zM475 10v0q-14 22 -42 22q-29 0 -47 -21t-18 -56q0 -32 16 -51q15 -19 42 -19q33 0 48 27h1v-24h25v208h-25
v-86zM475 -48q0 -20 -12 -33q-11 -13 -29 -13q-19 0 -29.5 13.5t-10.5 37.5q0 25 11 40q12 15 31 15q17 0 27 -11q12 -12 12 -28v-21zM569 0v0v29h-25v-141h25v72q0 22 9 35q9 14 24 14q11 0 17 -5v25q-6 2 -13 2q-26 0 -37 -31zM702 32q-34 0 -53 -20t-19 -55q0 -33 19 -52
q19 -20 50 -20q32 0 51 20.5t19 53.5q0 34 -18 53.5t-49 19.5zM733 -81q-11 -14 -32 -14t-33 14t-12 39q0 24 12 39q12 14 33 14q22 0 33 -14q11 -13 11 -39q-1 -25 -12 -39zM817 94q-7 0 -11.5 -5t-4.5 -11q0 -7 5 -11q4 -5 11 -5t11.5 5t4.5 11t-4.5 11t-11.5 5zM804 29
h25v-141h-25v141zM971 96v-86h-1q-13 22 -41 22q-29 0 -47 -21t-18 -56q0 -32 16 -51q15 -19 43 -19q32 0 47 27h1v-24h25v208h-25zM971 -48q0 -20 -12 -33q-11 -13 -29 -13q-19 0 -29.5 13.5t-10.5 37.5q0 25 11 40q12 15 31 15q17 0 27 -11q12 -12 12 -28v-21z" />
    <glyph glyph-name="pingguo" unicode="&#xe62d;" 
d="M544 732q19 6 44 29q25 25 37 55q12 32 12 55v8q0 1 -1 4.5t-1 5.5q-70 -16 -101.5 -60.5t-31.5 -104.5q15 2 24 4q11 1 18 4zM740 289q34 52 50 101q-36 12 -64 51q-29 41 -29 90q0 46 27 84q14 20 46 48q-21 26 -41 40q-39 27 -86 27q-15 0 -30 -6q-12 -5 -34 -16
q-19 -12 -37 -15q-19 -4 -27 -4t-21 4q-16 5 -35 16q-20 10 -38 14q-17 4 -33 4q-69 0 -115 -59q-45 -59 -45 -151q0 -100 59 -204t121 -104q22 0 54 13q32 14 58 14t61 -13q37 -13 56 -13q49 -1 103 79zM52 118q-7 0 -12.5 -5t-5.5 -12.5t5.5 -13t12.5 -5.5q8 0 13.5 5.5
t5.5 13t-5 12.5q-6 5 -14 5zM37 43h29v-162h-29v162zM242 90q-20 18 -57 18h-64v-226h29v84h29q35 -1 60 20q23 20 23 53t-20 51zM218 4q-14 -12 -41 -12h-27v90h30q51 0 51 -44q1 -22 -13 -34zM382 47q-34 0 -52 -30h-1v104h-28v-239h28v91q0 22 13 36q12 15 30 15
q37 0 37 -49v-93h28v100q-1 65 -55 65zM557 47q-39 0 -61 -23t-22 -63q0 -38 21 -60q22 -23 58 -23q37 0 59 23.5t22 62.5t-20 61q-21 22 -57 22zM592 -83q-13 -16 -37 -16t-38 16q-14 17 -14 44q0 29 14 45q14 17 37 17q25 0 38 -16t13 -45t-13 -45zM757 47q-35 0 -53 -31
h-1v27h-28v-162h28v92q0 22 12.5 36t30.5 14q37 0 37 -50v-92h29v99q0 33 -14 50q-15 17 -41 17zM991 -30q0 36 -18 57q-18 20 -50 20t-54 -24q-21 -24 -21 -61q0 -39 19 -62q19 -22 55 -22q35 0 56 15v26q-22 -18 -49 -18q-25 0 -38 15q-13 13 -14 39h113v15h1zM878 -22
q3 20 15 33t30 13q19 0 29 -12t10 -34h-84v0z" />
    <glyph glyph-name="weixinzhifu00c800" unicode="&#xe62e;" horiz-adv-x="4201" 
d="M1077 607q-549 -320 -612 -356q-32 -19 -49 -13t-33 40q-64 139 -98 214q-1 4 -2 9t-0.5 11.5t-0.5 9.5q4 0 11 -0.5t12 -1.5t8 -4q69 -46 115 -81q31 -24 67 -8q58 27 319 144q32 14 269 120q-9 8 -23.5 22t-26 24.5t-22.5 18.5q-210 160 -485 132q-251 -26 -403 -195
q-149 -167 -102 -375q35 -154 172 -256q42 -32 31 -86q-2 -8 -5 -22.5t-5.5 -26.5t-3.5 -22q-1 -5 -0.5 -10.5t2.5 -12.5t3 -10q3 1 9.5 1.5t11.5 1.5t8 3q51 28 101 59q37 24 77 13q173 -46 344 -4q269 67 378 277q106 202 -20 411q-3 -1 -20.5 -11.5t-26.5 -15.5z
M3219 228q104 86 158 193q5 9 8.5 21t6.5 29t5 27h-192v98h289v48h-291v93h-58v-94h-302v-48h301v-99h-236v-49h48q17 -3 22 -14q56 -127 145 -202q-19 -11 -38 -20t-42 -17.5t-38 -14t-43 -13.5l-38.5 -11t-43.5 -12t-40 -10l9 -19q14 -43 61 -25q176 70 242 95q20 8 33 1
q101 -59 280 -96q5 8 17.5 27.5t19.5 30.5q-15 3 -46 9.5t-54 11.5t-43.5 11t-42.5 13.5t-52 19t-45 16.5zM3173 262q-90 65 -140 183h287q-25 -83 -147 -183zM4201 593h-60q-22 -3 -29.5 5.5t-6.5 30.5q1 9 1 111h-56v-147h-306v-56h306l1 -16v-310q0 -6 -2.5 -17t-2.5 -14
q-4 -34 -39 -34q-10 1 -107 1q0 -4 3 -23.5t4 -31.5l10 -3q74 -1 99 0q40 0 63.5 22t23.5 62q1 33 3 330v37h95v53zM1948 723l-39 9q-47 -157 -83 -278q2 -4 11.5 -14t14.5 -16q4 6 10 17t7 13q36 -142 42 -166q6 -27 -5 -42q-13 -18 -97 -125q4 -4 15 -17t18 -22
q19 23 53 65t48 60q15 -18 47.5 -58.5t50.5 -63.5q14 24 15 25q11 14 10 25.5t-16 24.5q-25 24 -68 86q-9 13 -3 36q4 19 18 66t19 73q3 10 22 139q4 1 14 2t16 1v46h-144q11 54 24 114zM1992 562q-29 -164 -40 -231q-2 0 -6.5 -0.5t-6.5 -0.5q-25 123 -27 136q-6 34 -5 76
q0 5 6 11.5t11 7.5q7 1 68 1zM2364 73h49q1 18 3 37h273q0 -2 4 -37h53v248h-382v-248zM2415 274h273v-111h-273v111zM3699 749q-59 -184 -129 -286q-13 -18 -15.5 -36t1 -32.5t13.5 -36.5q19 29 75 112v-391h56v35v447q1 21 11 50q4 13 45 116q-10 4 -57 22zM2272 750
q-2 -3 -4 -9t-3 -10t-2 -7q-52 -165 -118 -264q-17 -26 -17 -48.5t19 -47.5q41 62 58 87q1 0 3 -0.5t3 -1.5v-375h51v34q0 353 1 429q0 25 11 59q6 15 51 138q-38 12 -53 16zM1604 509q37 1 149 0q21 0 22 -3q4 -13 12 -15.5t19 0t16 2.5v178h-45v-113h-53v166h-46v-166h-54
v112h-45q0 -122 -1 -136q0 -15 5.5 -20t20.5 -5zM2536 750q-31 -17 -41 -22q5 -9 18 -32.5t21 -38.5h-218v-46h476v49h-219q10 15 0.5 39t-37.5 51zM1852 293q-37 -30 -70 -58v111h-179q-1 -23 0 -44t-1 -43t-6 -41.5t-15.5 -38.5t-30.5 -34q27 -36 31 -41q44 36 56.5 82.5
t11.5 113.5h92q-3 -20 -7 -57.5t-6 -55.5h-4.5h-3.5q5 -6 16 -19.5t17 -20.5q9 8 27 25t32 29t28 21q22 14 22.5 33t-10.5 38zM1569 530q-18 9 -40 19q-99 -156 -110 -171q-20 -30 -20.5 -39.5t16.5 -42.5q7 7 24.5 28t29.5 35v-269h50v34v274q-1 42 18 68q6 9 11 19t11 24
t10 21zM2354 500h399v43h-399v-43zM2354 388h398v44h-398v-44zM1568 706q-6 4 -19 10.5t-18 9.5q-11 -15 -33.5 -45t-39.5 -52t-33 -42q-2 -2 -4 -5q-20 -23 -20.5 -32t16.5 -41q89 81 151 197zM1597 455v-49q156 0 201 1q4 0 8.5 10t4.5 18q0 5 -6 12t-11 7q-40 1 -197 1z
M3832 464q-25 -17 -45 -30q68 -118 93 -160q35 22 50 31q-19 28 -51 82t-47 77z" />
    <glyph glyph-name="zhifubao00aaee" unicode="&#xe62f;" horiz-adv-x="2913" 
d="M1000 49q-89 38 -183 79q-12 5 -197 87q-8 -9 -9 -10q-68 -79 -145 -120q-132 -70 -256 -31q-61 19 -96 66t-33 107q2 55 37.5 99t93.5 63q75 26 185 2q26 -6 174 -46q5 -3 10 -2.5t8 6.5q10 24 56 130h-397v42h200v70h-242v40h244v18v79q0 20 14 21h104v-118h242v-41
h-241v-71h197q-27 -112 -84 -212q5 -2 40 -15t43 -16t39 -14t43 -15t39 -12.5t44 -13.5t40 -11t44 -11v21v509q0 60 -45.5 107t-105.5 47q-335 1 -705 0q-59 0 -105 -46.5t-46 -104.5q-1 -384 0 -705q0 -59 47 -105t106 -46h701q60 0 106.5 46.5t46.5 106.5q0 15 -14 20z
M1722 250v27q3 18 -18 26q-52 21 -120 53q-4 2 -68 37q133 99 170 235h-177v64h205v41h-207v79h-87q-24 0 -23 -24v-57h-204v-40h203v-64h-172v-39h343v-7q-27 -69 -105 -140q-2 -2 -7 -1.5t-8 2.5q-62 47 -100 100q-6 7 -8 8h-90q49 -84 148 -158q-19 -12 -20 -12
q-76 -45 -176 -77q-11 -4 -12 -11v-39l5 -1q138 32 250 96q11 6 23 0q111 -50 171 -74q12 -4 25.5 -8t31.5 -8.5t27 -7.5zM2845 382q-2 5 -6.5 9t-8.5 4q-14 1 -88 1q3 -13 11 -40.5t13 -41.5h-99v160h197v40h-198v75h198v38h-496v-39h196v-75h-196v-40h196v-161h-197v-39
h510q-26 89 -32 109zM173 312q-52 -27 -56 -80.5t42 -87.5q74 -54 178 -27q58 15 104.5 51t90.5 92q-44 21 -71.5 33.5t-68 25t-76.5 16.5q-84 9 -143 -23zM2266 801h-94v-93h-227v-39h225l2 -6v-337q0 -18 -17 -17h-43v-41h121q16 1 24.5 11.5t8.5 27.5v341v21h36v40h-36
v92zM1856 809q-14 1 -20 -14q-12 -26 -74 -173q-4 -10 -13.5 -31.5t-14.5 -33.5h83v-297h89v395h-32q12 27 34.5 78t32.5 76h-85zM2456 663q1 0 14 1v55h290q0 -39 1 -44q0 -4 3.5 -7.5t5.5 -4.5q38 -1 86 0q3 0 6.5 3t3.5 5q1 41 -1 62q-2 26 -30 26h-123h-42v52h-109v-53
h-193v-95h40.5h47.5zM1371 170q-2 6 -5 8t-9.5 1.5t-7.5 -0.5q-16 2 -20 -10q-6 -18 -27 -75q-12 -34 -53 -144h32q12 -1 16 12q9 26 15.5 30.5t34.5 4.5q35 0 42.5 -5.5t17.5 -38.5q1 0 2 -2h41v5q-72 194 -79 214zM1320 26q4 13 14.5 44t16.5 49q7 -19 17.5 -50.5
t14.5 -42.5h-63zM2479 169q-1 4 -2.5 6t-4.5 3t-4 1h-5h-5q-17 1 -21 -11q-7 -19 -40 -110q-6 -15 -40 -108h29q14 -2 20 14q8 24 14 28.5t32 4.5h2q4 0 14.5 1t17.5 0.5t12 -4t7.5 -10t5.5 -17t4 -14.5l2 -2h41q0 7 -1 7q-72 195 -78 211zM2428 27l2 6q5 16 15 45.5
t14 39.5q5 -13 5 -14q3 -9 26 -77h-62zM2192 178h-99v-227h39v86q40 0 43 1q38 6 52 14q19 10 26.5 32t1.5 45q-6 21 -23 34.5t-40 14.5zM2215 105q-5 -34 -39 -34h-43v76h53q13 -2 22.5 -15.5t6.5 -26.5zM2071 598q-2 5 -8 10t-11 6h-78q43 -134 58 -181q2 -6 10 -6h84
q-45 140 -55 171zM2810 179q-20 3 -27 -17q-3 -7 -20 -44q-2 -3 -17 -35q-35 75 -39 83q-6 15 -21 14q-2 -1 -30 -1q7 -16 8 -18q50 -97 53 -103q7 -15 8 -33v-74h41v23q-8 70 32 131q7 10 13 22t13.5 28t11.5 24h-26zM1631 178h-42v-227h139v30h-97v197zM1881 -49h41v227
h-41v-227z" />
    <glyph glyph-name="fenxiang1" unicode="&#xe639;" horiz-adv-x="1075" 
d="M175 -128q-73 0 -124 52.5t-51 127.5v664q0 74 51 126.5t124 52.5h166q21 0 36.5 -15.5t15.5 -38.5v0q0 -22 -15 -38t-37 -16h-158q-61 -17 -78 -80v-647q17 -62 78 -80h629q61 18 79 80v189q0 22 15 38t37 16v0q22 0 37.5 -16t15.5 -38v-197q0 -75 -51.5 -127.5
t-123.5 -52.5h-646v0zM786 411h-26q-38 29 -26 54v54q-70 5 -145 -24.5t-136 -80t-108 -115.5t-66 -130q-17 60 -17 121q0 85 41.5 174t107 158t152 115t171.5 51v54q-12 24 26 54h26q4 0 10.5 -1t10.5 -1t5 2l239 -194q23 -18 23 -48.5t-23 -48.5l-239 -194q-1 2 -5 2
t-10.5 -1t-10.5 -1v0z" />
    <glyph glyph-name="appxiazai" unicode="&#xe632;" 
d="M934 756h-173v-99h99q21 0 35.5 -14.5t14.5 -35.5v-546q0 -20 -14.5 -34.5t-35.5 -14.5h-695q-21 0 -35.5 14.5t-14.5 34.5v547q0 20 14.5 34.5t35.5 14.5h99v100h-173q-31 0 -53 -22t-22 -53v-695q0 -31 22 -53t53 -22h843q31 0 53 22t22 53v695q0 31 -22 52.5t-53 21.5
v0zM809 432l-70 70l-173 -173v483q0 15 -11 26t-26 11h-25q-15 0 -26 -11t-11 -26v-462l-151 151l-72 -72l275 -275v0z" />
    <glyph glyph-name="xinwen" unicode="&#xe648;" 
d="M393 -102h516v961h-819v-961h303v0zM678 575l35 160h36l35 -160l36 160h36l-36 -214h-53l-38 162l-34 -162h-53l-36 214h36l36 -160v0zM571 735v-36h-107v-53h107v-36h-107v-53h107v-36h-143v214h143v0zM268 735l71 -143v143h54v-214h-54l-73 146l2 -146h-53v214h53v0z
M464 432v-53h-249v53h249v0zM215 236v54h249v-54h-249v0zM215 147h249v-53h-249v53v0zM535 432h285v-338h-285v338v0z" />
    <glyph glyph-name="gengduo" unicode="&#xe75e;" 
d="M868 882h-712q-59 0 -100.5 -42t-41.5 -101v-712q0 -59 41.5 -100.5t100.5 -41.5h712q59 0 100.5 42t41.5 100v712q0 59 -41.5 101t-100.5 42zM392 89q-13 0 -22 9t-9 21q0 13 9 22v0l261 242l-258 240q-2 1 -3 3v0v0q-9 9 -9 21q0 13 9 22t22 9q15 0 24 -12l310 -283
l-309 -282q-10 -12 -25 -12z" />
    <glyph glyph-name="social-weibo" unicode="&#xe63b;" 
d="M382.5 197.5q-6.5 -0.5 -11.5 -5.5t-6 -11.5t3 -11.5t10.5 -5t12 5t6 12t-3.5 12t-10.5 4.5zM324 187q-20 -1 -36 -16.5t-18.5 -36.5t9.5 -35.5t32 -14.5q21 0 37 15.5t19 37.5q2 22 -10.5 36.5t-32.5 13.5zM766 222.5q-6 62.5 -59 111t-139.5 71.5t-184.5 13.5
t-178.5 -48t-123.5 -96.5t-37 -121t59.5 -111.5t139.5 -71.5t184 -13.5t178.5 48.5t123.5 97t37 120.5zM515 173q-6 -62 -58 -106.5t-118 -44.5q-62 0 -99 42t-28 101q8 57 56.5 99.5t108.5 45.5q64 4 104.5 -36t33.5 -101zM1022 582q-12 67 -44 120t-74 84t-84.5 47.5
t-84.5 19.5q-15 2 -26.5 -6.5t-13.5 -22t6.5 -25.5t21.5 -15q3 -1 9 -2q21 -4 33 -7t35.5 -11.5t38.5 -18t35.5 -27t34 -38.5t26 -52.5t19.5 -69.5q2 -16 14 -27t29 -7q16 3 23.5 15.5t1.5 42.5zM720 635h-4q-7 0 -14 -5t-9 -13q-3 -10 2 -19.5t15 -11.5q38 -8 46 -46
q4 -14 17 -18q12 -4 23.5 5t7.5 27q-6 28 -30 52t-54 29zM738 736q-21 3 -32.5 -8t-11.5 -26q0 -26 35 -35q48 -14 74.5 -38.5t33.5 -73.5q2 -14 13 -22.5t22 -8.5q13 0 22.5 9.5t9.5 23.5v2v0q-8 67 -54 116t-112 61zM732 199q-6 -61 -60.5 -112.5t-140.5 -80t-180 -26.5
q-132 3 -211.5 63.5t-65.5 143.5q15 79 111.5 139t224.5 67q90 6 166.5 -18t118.5 -71t37 -105zM704 397q-11 0 -11.5 2t3.5 14q32 79 -7 113q-13 11 -44 16t-81 -7t-97 -45q-15 -10 -18 -9q-5 2 -6 16q-1 10 2 38t3 50.5t-4.5 46.5t-22.5 36t-49 8q-41 -7 -92 -41
t-94.5 -79.5t-79 -91.5t-53.5 -81q-46 -91 -51.5 -167.5t22 -127t79 -86.5t114.5 -52.5t133 -18.5q122 -4 237 36.5t194 115.5t95 166q6 35 -5 63t-32 43.5t-48 25.5t-48.5 13.5t-38.5 2.5zM377 310q-60 -3 -108.5 -45.5t-56.5 -99.5q-9 -59 28 -101t99 -42q66 0 118 44.5
t58 106.5q7 61 -33.5 101t-104.5 36zM367 137q-3 -22 -19 -37.5t-37 -15.5q-20 0 -32 14.5t-9.5 35.5t18.5 36.5t36 16.5t32.5 -13.5t10.5 -36.5zM378.5 164q-6.5 0 -10.5 5t-3 11.5t6 11.5t11.5 5.5t10.5 -4.5t3.5 -12t-6 -12t-12 -5z" />
    <glyph glyph-name="social-wechat" unicode="&#xe63c;" 
d="M712 544q9 0 16 -1q-21 111 -123.5 185.5t-238.5 74.5q-100 0 -184 -41t-133 -111.5t-49 -153.5q0 -73 38.5 -137t105.5 -106l3 -3l-35 -110l132 67l6 -2q57 -15 115 -15h25q-11 36 -11 73q0 76 44.5 140.5t121.5 102t167 37.5zM493.5 652q21.5 0 36.5 -14.5t15 -35.5
t-15 -35.5t-36.5 -14.5t-36.5 14.5t-15 35.5t15 35.5t36.5 14.5zM238.5 552q-21.5 0 -36.5 14.5t-15 35.5t15 35.5t36.5 14.5t36.5 -14.5t15 -35.5t-15 -35.5t-36.5 -14.5zM406 262.5q0 -107.5 90.5 -183t218.5 -75.5v0q53 0 103 15l112 -57l-30 93l3 2q56 36 88.5 90
t32.5 116q0 107 -90.5 182.5t-218.5 75.5t-218.5 -75.5t-90.5 -183zM779 351.5q0 17.5 12.5 30t30.5 12.5t31 -12.5t13 -30t-13 -29.5t-31 -12t-30.5 12t-12.5 29.5zM564 351.5q0 17.5 12.5 30t30.5 12.5t31 -12.5t13 -30t-13 -29.5t-31 -12t-30.5 12t-12.5 29.5z" />
    <glyph glyph-name="noun_580058_cc" unicode="&#xe638;" 
d="M18 852v-718h558l262 -262v262h169v718h-989zM916 223h-168v-135l-135 135h-505v540h808v-540zM243 537h89v-89h-89v89zM467 537h90v-89h-90v89zM692 537h89v-89h-89v89z" />
    <glyph glyph-name="remengegu" unicode="&#xe63e;" horiz-adv-x="1029" 
d="M297 458q-120 3 -206.5 -81.5t-86.5 -204.5q-3 -119 81.5 -206t203.5 -87q120 -2 207 82.5t87 203.5v4q0 119 -83.5 204t-202.5 85zM318 82q-12 -13 -25 0l-72 76l-76 -76l-26 25l87 91q13 12 26 0l72 -76l141 144l25 -25zM868 896q-17 -47 -37.5 -84t-38.5 -59.5
t-38.5 -38.5t-36.5 -22.5t-33 -10t-27.5 -2.5t-21.5 2.5t-13 1.5q11 26 78 89q13 12 11 12h-2l-19.5 0.5t-52.5 -5t-74 -18.5t-94.5 -46.5t-103.5 -82.5q-55 -56 -86 -123h18q95 0 175.5 -51t120.5 -137q47 30 101 37t109 -12q-28 4 -56 -9.5t-47 -38t-30 -51.5t-6 -52
t27 -37.5t41 -15t38.5 7t32.5 19t37 30t39 31.5q-3 -24 -6.5 -42.5t-12.5 -47.5t-21.5 -50.5t-34.5 -44.5t-50 -37t-69.5 -21t-91.5 -3q-14 0 -21 4q-15 -33 -65 -83q60 -19 115 -19q161 0 267.5 104.5t130.5 275.5q12 84 9 159t-13 136.5t-28 114t-36 91t-36.5 67.5
t-30 43.5t-17.5 18.5z" />
    <glyph glyph-name="wenzhangdie" unicode="&#xe63f;" 
d="M948 281l-50 400l-252 -315l93 12l-63 -222q-8 -30 -35 -45t-56 -7l-2 1q-30 8 -45 35t-7 56l95 335q24 86 -20 163.5t-129.5 101.5t-163 -19.5t-102.5 -129.5l-60 -215l-73 58l50 -400l251 316l-92 -12l60 215q9 29 35.5 44t55.5 7q30 -8 45 -35t6 -56l-94 -335
q-24 -86 20 -163.5t129 -101.5l3 -1q85 -24 163 20t102 129l62 222z" />
    <glyph glyph-name="shangsheng" unicode="&#xe640;" 
d="M568 896q-2 0 -5.5 -2t-5.5 -2l-260 -336l-4 -7q0 -8 4 -8q9 -9 14 -3l83 36l170 213q6 6 11 0l178 -231l68 -18q8 -4 15 3q6 6 0 18l-261 337q2 -2 0 -1q-4 1 -7 1zM568 711q-2 0 -5.5 -1.5t-5.5 -1.5l-260 -337l-4 -7q0 -7 4 -7q9 -9 14 -4l174 69q2 -71 -1 -121.5
t-13 -101.5t-30 -90t-52.5 -79.5t-78.5 -77t-111 -76.5q52 10 93 21.5t87.5 32.5t81.5 48t69.5 68t57.5 93t40 124t23 159l174 -69q7 -3 14 4q6 6 0 18l-260 336h-11z" />
    <glyph glyph-name="wenduji" unicode="&#xe641;" 
d="M530 267l105 379q5 18 -8 35t-36.5 23.5t-43.5 -1.5t-24 -26l-106 -379q-42 -7 -74 -34.5t-44 -70.5q-16 -57 13.5 -109.5t87 -68t110 13.5t68.5 87q11 42 -2.5 83t-45.5 68zM680 301l107 383q18 66 -28 126q-42 56 -117 77q-74 21 -140 -5q-71 -28 -89 -93l-107 -384
q-52 -27 -88.5 -72.5t-52.5 -101.5q-31 -113 26.5 -215t170.5 -133t215 26t133 171q16 56 8 113.5t-38 107.5zM382.5 -44q-82.5 23 -125 97.5t-19.5 157.5q12 44 42.5 79t72.5 54l16 7l116 417q9 31 49 44.5t86 1.5q47 -13 74 -45.5t19 -63.5l-116 -417l10 -15
q27 -38 34.5 -83.5t-4.5 -89.5q-23 -83 -97.5 -125t-157 -19z" />
    <glyph glyph-name="xiajiang" unicode="&#xe642;" 
d="M435 -128q7 0 14 7l313 410q3 3 3 10.5t-3 10.5q-4 8 -18 8l-209 -83q-2 86 1.5 147t16.5 122.5t36.5 108.5t62.5 96t94.5 93.5t133.5 93.5q-48 -10 -87.5 -20.5t-84 -27t-80 -36t-73 -48.5t-66.5 -64t-56 -82t-46 -103t-33 -127t-20 -153l-208 83q-12 5 -18 -8
q-6 -10 0 -21l312 -410q8 -7 15 -7z" />
    <glyph glyph-name="noun_509318_cc" unicode="&#xe643;" 
d="M76 668v-414q0 -10 7 -17t17 -7h414q12 0 20 9q6 11 2 22l-7 24l212 346l55 -151q4 -10 15 -14l130 -68q14 -4 18 -2q10 7 6 16l-137 379l-17 48q-6 16 -23 16l-57 -1q-14 -2 -20 -12l-238 -387l-72 222q-6 17 -23 17h-277q-10 0 -17 -8t-8 -18zM242 644h118l81 -244
h-199v244zM716 314q8 -67 61.5 -108.5t121.5 -33.5h1q10 2 17 14l67 164q6 14 -6 26q-12 9 -25 2q-7 -3 -29.5 -26.5t-30.5 -24.5q-40 -4 -74 14.5t-50 53.5q-8 12 -22 12q-15 0 -21 -13q-16 -39 -10 -80zM19 44q0 -40 32 -68.5t77 -28.5h543q45 0 76.5 28.5t31.5 68.5
q0 41 -31.5 70t-76.5 29h-543q-45 0 -77 -29t-32 -70zM630 44q0 10 7 17t17 7t17 -7t7 -17t-7 -17t-17 -7t-17 7t-7 17zM460 44q0 10 7 17t17 7t17 -7t7 -17t-7 -17t-17 -7t-17 7t-7 17zM292 44q0 10 7 17t17 7t17 -7t7 -17t-7 -17t-17 -7t-17 7t-7 17zM122 44q0 10 7 17
t17 7t17 -7t7 -17t-7 -17t-17 -7t-17 7t-7 17z" />
    <glyph glyph-name="noun_117080_cc" unicode="&#xe644;" 
d="M449 415q-10 2 -16 -2q-8 -5 -9 -13l-30 -111q-10 -38 -10 -78q-7 1 -23 1q-74 -3 -118 -64q-7 2 -23 2q-52 -3 -87 -41t-33 -90q0 -8 6.5 -14t15.5 -5q8 0 14 6.5t5 15.5q-1 34 22.5 59.5t58.5 27.5q14 0 26 -4q16 -3 22 10q31 53 94 56q41 2 74 -25t40 -68
q2 -11 11 -16q11 -5 19 0q11 6 24 8q20 0 36.5 -11t22.5 -30q3 -11 12 -14t19 2q0 1 1 1.5t2 0.5q1 1 3.5 2.5t4.5 2.5q20 8 44 9.5t53 -10t48 -38.5q6 -10 17 -10q7 0 11 5q7 4 8.5 12.5t-3.5 15.5q-42 60 -113 66q45 48 63 116l30 112q2 9 -2 16t-13 9l-104 27l93 348
l25 -6q24 -7 46 6t28 37q7 25 -6 47.5t-37 28.5l-168 45q-24 7 -46 -5.5t-28 -37.5q-7 -25 5.5 -47t37.5 -29l24 -6l-93 -348zM746 293l-24 -91q-26 -95 -102 -137q-15 22 -38.5 35t-51.5 12q-5 0 -19 -2q-23 66 -87 92q-2 41 8 78l25 91l86 -23l-0.5 -1.5t-0.5 -2.5
q-1 -4 -5 -25v-4l-0.5 -2t-0.5 -3t-0.5 -3.5t-0.5 -4.5v-16q1 -35 9 -58q5 -13 12 -19q2 -2 5 -3.5l4 -2l1 -0.5q11 -2 13 7q2 10 -8 12l-1 1q-2 3 -4 11q-4 19 -1 50q1 2 1.5 6.5t0.5 6.5q0 1 0.5 3t0.5 3q1 1 1.5 2.5t0.5 2.5q8 22 9 24l7 23q0 1 1 2l23 89l40 -10
l-24 -91q-2 -10 2 -15q4 -8 12 -9zM677 769l-44 12q-6 2 -12 10q-4 6 -3 15q3 8 10 12.5t15 1.5l168 -45q6 -1 12 -9q4 -6 2 -15t-9 -13t-15 -2l-44 13q-10 2 -16 -3q-7 -4 -9 -12l-68 -256l-40 10l68 256q2 8 -2.5 15.5t-12.5 9.5zM853 -77h-413q-7 0 -12 5.5t-5 12.5t5 12
t12 5h413q7 0 12 -5t5 -12t-5 -12.5t-12 -5.5zM341 -77h-159q-7 0 -12 5.5t-5 12.5t5 12t12 5h159q7 0 12 -5t5 -12q1 -7 -4 -12.5t-13 -5.5z" />
    <glyph glyph-name="tips" unicode="&#xe645;" 
d="M128 513v4q0 65 33 143t79 123q45 47 122.5 80t142.5 33h6q104 0 192.5 -51.5t140 -139.5t52.5 -192v-2q0 -21 -2 -42q-2 -4 -2 -8v-3l-6 -35q-2 0 -2 -6q-6 -22 -12 -36v-2l-2 -2q-7 -20 -16 -38v0q0 -2 -2 -2v0q-10 -20 -22 -38q-14 -20 -26 -36l-1 -1l-1 -1
q-13 -15 -28 -28q-2 -1 -3 -2q-6 -5 -11 -12h-1q-4 0 -5 -4l-19 -15l-4 -3l-3 -2q-17 -13 -26 -32q-6 -14 -16 -25q-11 -9 -25 -9q-3 0 -5 1h-288q-2 -1 -5 -1q-14 0 -25 9q-11 11 -17 25q-9 19 -25 32q-2 0 -4 2l-3 3l-19 15l-6 4l-8 8l-6 6l-28 28l-1 1l-1 1
q-28 35 -48 74v0q-2 0 -2 2v0q-9 19 -16 38v0q-2 0 -2 2v0v2q-7 18 -12 36q-1 1 -1 3l-1 3q-4 18 -6 36q0 1 -1 5t-1 5q-2 20 -2 41v3v0zM354 66h320q13 0 22.5 -9.5t9.5 -23t-9.5 -22.5t-22.5 -9h-320q-13 0 -22.5 9t-9.5 22.5t9.5 23t22.5 9.5zM368 -62h290l-118 -60
q-14 -6 -29 -6t-29 6l-114 60v0zM546 704q26 0 58 -14t51 -33q21 -18 36 -51.5t15 -62.5v-2q0 -14 9.5 -23t22.5 -9t22.5 9t9.5 23v9q0 39 -20 84.5t-48 71.5q-27 26 -72.5 44t-82.5 18h-1h-1q-13 0 -22.5 -9t-9.5 -22.5t9.5 -23t22.5 -9.5h1v0z" />
    <glyph glyph-name="remensousuoci" unicode="&#xe646;" 
d="M850 853q-19 -51 -41 -89t-43.5 -59t-41 -34t-39.5 -16.5t-32.5 -4.5t-26 1.5t-14.5 2.5q11 26 71 81q13 13 12 13q0 -1 -17 -0.5t-49.5 -4.5t-71 -17t-89.5 -43t-99 -76q-18 -19 -54 -62q90 -19 151.5 -86.5t72.5 -159.5v-11q9 5 35.5 21t41.5 22t42.5 14t58.5 6t68 -12
q-26 4 -53 -9t-45 -36t-29 -48.5t-6.5 -49t25 -35t39 -13.5t37.5 6.5t31.5 17.5t36 28.5t37.5 29.5q-22 -212 -203 -231q16 -44 -15 -87q142 11 235.5 107t115.5 247q17 110 7 202t-29.5 161t-46.5 119t-45.5 75t-26.5 30zM257 494q-92 0 -163 -65q-67 -65 -68 -159.5
t64 -162.5l4 -3q57 -57 137.5 -65t148.5 36l145 -145q13 -14 30.5 -14t30.5 14l7 7q14 14 14 31t-14 31l-144 144q44 68 35 149t-68 137q-60 65 -159 65zM369 158q-46 -46 -112 -46t-112 46t-46 110t46 110.5t112 46.5t112 -46.5t46 -110.5t-46 -110z" />
    <glyph glyph-name="jingxuan" unicode="&#xe64c;" horiz-adv-x="1606" 
d="M435 896h-425q-10 0 -10 -10v-426v0q0 -9 10 -9h425v0q9 0 9 9v426q0 10 -9 10zM1015 896h-425q-9 0 -9 -10v-426v0q0 -9 9 -9h425v0q10 0 10 9v426q0 10 -10 10zM1596 896h-425q-9 0 -9 -10v-426v0q0 -9 9 -9h425v0q10 0 10 9v426q0 10 -10 10zM435 317h-425
q-10 0 -10 -9v-426v0q0 -10 10 -10h425v0q9 0 9 10v426v0q0 9 -9 9zM1015 317h-425q-9 0 -9 -9v-426v0q0 -10 9 -10h425v0q10 0 10 10v426v0q0 9 -10 9zM1596 317h-425q-9 0 -9 -9v-426v0q0 -10 9 -10h425v0q10 0 10 10v426v0q0 9 -10 9z" />
    <glyph glyph-name="jinggegu" unicode="&#xe649;" 
d="M895 340l-256 47l-127 218l-126 -218l-257 -47l179 -182l-32 -247l236 106l237 -106l-32 247zM832 857h-128v-378h128v378zM321 857h-128v-378h128v378zM576 857h-127v-189h127v189z" />
    <glyph glyph-name="quanju" unicode="&#xe64a;" horiz-adv-x="1326" 
d="M1305 706h-1284v0q-9 0 -15 5.5t-6 14.5v150q0 8 6 14t15 6v0h1284h1q8 0 14 -6t6 -14v-150q0 -9 -6 -14.5t-14 -5.5h-1zM959 289h-938v0q-9 0 -15 5.5t-6 14.5v150q0 9 6 14.5t15 5.5v0h938h1q8 0 14 -5.5t6 -14.5v-150q0 -8 -6 -14t-14 -6h-1zM1087 -128h-1066v0
q-9 0 -15 6t-6 14v150q0 9 6 14.5t15 5.5v0h1066v0q9 0 15 -5.5t6 -14.5v-150q0 -8 -6 -14t-15 -6v0z" />
    <glyph glyph-name="kanpangaoshou" unicode="&#xe64b;" 
d="M603 229q1 -6 0.5 -29.5t-1.5 -30.5h-15q0 9 -2.5 52t-5.5 53q0 2 -66.5 2t-66.5 -2q-2 -10 -5 -53.5t-2 -51.5h-16q0 51 1 60q-28 -5 -41 -7q-45 -12 -71.5 -29t-26.5 -37q0 -33 67 -56t161 -23q95 0 161.5 23t66.5 56q0 24 -38 44t-100 29zM736 806h-176
q0 -19 -13.5 -32.5t-32.5 -13.5t-33 13.5t-14 32.5h-176q-52 0 -89 -37t-37 -88v-261q0 -52 37 -88.5t89 -36.5h446q52 0 89 36.5t37 88.5v261q-2 52 -38.5 88.5t-88.5 36.5zM789 452q0 -38 -27 -65t-65 -27h-369q-38 0 -65 27t-27 65v199q0 38 27 65t65 27h369q38 0 65 -27
t27 -65v-199zM752 594h-132q-11 1 -15 -10l-11 -25v144q0 12 -13 15t-18 -10l-85 -222v135v3q-2 9 -10 11q-6 3 -12 0.5t-9 -9.5l-35 -85l-144 -6q-7 0 -7 -7.5t7 -7.5l152 -10q12 -1 17 10l9 23v-141q0 -6 5 -11t11 -5t10 5h1q2 2 3 6l85 223v-135q0 -6 4.5 -10.5
t10.5 -5.5q12 -1 16 10l36 85l123 -4q8 0 12.5 5t4.5 12q1 6 -4 11.5t-12 5.5zM513.5 771q15.5 0 26 10.5t10.5 25t-11 25.5t-25 11q-16 0 -26 -10.5t-10 -25.5t10 -25.5t25.5 -10.5zM514 815q8 0 8 -8t-8.5 -8t-8.5 8q-1 8 9 8z" />
    <glyph glyph-name="huangguan" unicode="&#xe64e;" 
d="M867 579q-37 0 -63 -26t-26 -63q0 -17 6 -33l-140 -55l-93 187q20 10 34.5 33.5t14.5 45.5v0q0 37 -26 63t-63 26t-63 -26t-26 -63q0 -25 13.5 -46.5t35.5 -32.5l-94 -187l-139 55q6 16 6 33v0q0 37 -26 63t-63 26t-63 -26t-26 -62.5t26 -63t63 -26.5q8 0 15 2l47 -282
q3 -32 28.5 -53.5t56.5 -21.5h414q33 0 57.5 21t31.5 54l47 282q7 -2 15 -2q37 0 63 26.5t26 63t-26 62.5t-63 26zM596 115l-85 45l-85 -45l16 95l-69 67l95 14l43 86l42 -86l96 -14l-69 -67z" />
    <glyph glyph-name="tuijian" unicode="&#xe64f;" horiz-adv-x="1107" 
d="M480 644q12 0 22 -8.5t13 -22.5l3 -10q4 -23 4 -47q0 -57 -12 -90l-19 -59h62q147 -1 159 -1q19 -1 27 -15q7 -11 6 -25q-3 -17 -29 -136.5t-33 -148.5q-5 -8 -13 -13t-12 -5h-363l1 328q66 21 109 77t45 126v2v2v1v4q0 16 7.5 28.5t22.5 12.5zM179 381v-319h-60v319h60z
M480 689q-33 0 -54 -25t-21 -61v-8q-2 -65 -46.5 -112.5t-107.5 -55.5l-1 -409h9v0v0h399v0q17 0 37 13q19 13 30 34q1 2 32.5 144t32.5 153q2 28 -12 52q-21 35 -64 37l-161 1q13 40 13 104q0 34 -7 67v0q-6 28 -28.5 47t-50.5 19zM193 426h-87q-13 0 -22.5 -9.5
t-9.5 -23.5v-343q0 -13 9.5 -22.5t22.5 -9.5h87q13 0 22 9.5t9 22.5v343q0 14 -9 23.5t-22 9.5zM259 18v0v0v0v0v0v0v0zM906 779q-2 7 -9 9l-91 22l-50 80q-3 6 -10.5 6t-11.5 -6l-49 -80l-91 -22q-11 -3 -11 -13q0 -5 4 -9l60 -71l-7 -94v-1q0 -5 4 -9t9 -4q3 0 5 1l87 36
l87 -36q2 -1 5 -1q4 0 8 3q5 4 5 10v1l-7 94l61 71q3 4 3 9q0 2 -1 4z" />
    <glyph glyph-name="jinqi" unicode="&#xe650;" 
d="M48.5 464q15.5 0 26.5 11t11 27t-11 27t-26.5 11t-26.5 -11t-11 -27t11 -27t26.5 -11zM48.5 270q15.5 0 26.5 11.5t11 27t-11 27t-26.5 11.5t-26.5 -11.5t-11 -27t11 -27t26.5 -11.5zM390 811q16 0 27.5 11.5t11.5 27.5t-11.5 27.5t-27.5 11.5t-27 -11.5t-11 -27.5v0
q0 -16 11 -27.5t27 -11.5v0zM124 618q16 0 27 11t11 27t-11 27.5t-27 11.5t-27 -11.5t-11 -27.5t11 -27t27 -11zM238.5 733q15.5 0 26.5 11.5t11 28t-11 27.5t-26.5 11t-26.5 -11t-11 -27.5t11 -28t26.5 -11.5zM505 889v0v0h-1h-1q-15 0 -25 -10.5t-10 -24.5t10 -24t25 -10
h3q116 -1 214 -59t155 -158t57 -218t-57 -218t-156 -158t-215 -58q-108 0 -201 50.5t-152 138.5q24 -10 42 8q11 11 11 27t-11 27l-64 64q-11 11 -27 11t-27 -11l-64 -64q-11 -11 -11 -27t11 -27t27 -11t27 11l3 3q63 -121 180 -194t257 -73q101 0 192.5 39.5t157.5 107
t105 160.5t39 195t-39 195.5t-105 160.5t-157.5 107t-192.5 40zM394 552h201q-18 -29 -36 -57q-88 -146 -125 -283q-15 -57 -15 -68q0 -13 7 -24q13 -17 36.5 -17t36.5 17q7 10 21 66q43 183 171 356q23 31 23 53q0 6 -1.5 11.5t-5.5 13.5t-14.5 12.5t-26.5 4.5h-272
q-23 0 -36 -11t-13 -32q0 -5 1.5 -11t6 -13.5t15 -12.5t26.5 -5z" />
    <glyph glyph-name="ri" unicode="&#xe651;" horiz-adv-x="1053" 
d="M1 -43q0 -31 27 -58t59 -27h805q32 0 59 27t27 58v626h-977v-626v0zM39 574h901v-617q0 -15 -16 -31t-32 -16h-805q-17 0 -32.5 16t-15.5 31v617v0zM892 725h-180v86q0 9 -9.5 9t-9.5 -9v-86h-407v86q0 9 -9.5 9t-9.5 -9v-86h-179q-8 -3 -11 -11v-55h825v47q0 5 -2.5 12
t-7.5 7zM892 801h-104v10q0 35 -25 60t-60.5 25t-60.5 -25t-25 -60v-10h-255v10q0 35 -25.5 60t-60.5 25t-60 -25t-25 -60v-10h-104q-32 0 -59 -26.5t-27 -58.5v-104h977v94q0 38 -23.5 66.5t-62.5 28.5zM940 621h-901v95q0 16 15.5 31.5t32.5 15.5h142v48q0 19 13.5 33
t33.5 14t34 -14t14 -33v-48h331v48q0 19 14 33t33.5 14t33.5 -14t14 -33v-48h142q24 0 36 -18.5t12 -38.5v-85zM1 612h977v-29h-977v29zM696 36h-78v369l-116 -369h-40l-117 369v-369h-62v421h119l88 -271l86 271h120v-421z" />
    <glyph glyph-name="arrow" unicode="&#xe653;" 
d="M512 828q-90 0 -172.5 -35t-142 -94.5t-94.5 -142t-35 -172.5t35 -172.5t94.5 -142t142 -94.5t172.5 -35t172.5 35t142 94.5t94.5 142t35 172.5t-35 172.5t-94.5 142t-142 94.5t-172.5 35zM768 423l-222 -222q-11 -12 -28 -12t-29 12l-222 222q-12 12 -12 29t12 28l10 10
q12 12 29 12t29 -12l183 -183l182 183q12 12 29 12t29 -12l10 -10q12 -11 12 -28t-12 -29z" />
    <glyph glyph-name="suo" unicode="&#xe654;" 
d="M890 473q-4 31 -21 56.5t-43 40.5v43q0 105 -74.5 179.5t-178.5 74.5h-101q-105 0 -179.5 -74.5t-74.5 -179.5v-34q-34 -12 -57 -41t-26 -67l-0.5 0.5l-0.5 0.5v-206v0v-236q0 -52 37 -89.5t89 -37.5h504q52 0 89.5 37.5t37.5 89.5v238v0v205h-0.5h-0.5zM567 233v-151
h-111v151q0 4 15.5 5.5t15.5 5.5q1 10 -14 24t-15 24q0 23 16 39t38.5 16t38.5 -16t16 -39q0 -10 -15.5 -24t-14.5 -24q0 -4 15 -5.5t15 -5.5zM755 587h-466v26q0 76 53.5 129.5t129.5 53.5h101q75 0 128.5 -53.5t53.5 -129.5v-26z" />
    <glyph glyph-name="wushuju" unicode="&#xe655;" horiz-adv-x="1194" 
d="M860 478h-152l41 -35h125v21q0 6 -4 10t-10 4zM1041 133h-45q69 98 69 217q0 103 -51 190t-138 138t-190 51q-109 0 -202 -59h-242q-28 0 -47.5 -19t-19.5 -46.5t19.5 -47t47.5 -19.5h116q-50 -87 -50 -188q0 -48 12 -94q-26 -2 -44 -21t-18 -45q0 -27 19.5 -46.5
t46.5 -19.5h59q53 -71 132.5 -111.5t170.5 -40.5q76 0 146 29h209q28 0 47 19.5t19 46.5t-19 46.5t-47 19.5zM899 204q0 -20 -16 -32q-10 -7 -23 -7h-347q-17 0 -28.5 11.5t-11.5 27.5v287q0 6 2 12q4 12 14.5 19.5t23.5 7.5h135l31 -27h181q16 0 27.5 -11.5t11.5 -27.5
v-260zM1107 670zM1037 670.5q0 -29.5 20.5 -50t50 -20.5t50 20.5t20.5 50t-20.5 50t-50 20.5t-50 -20.5t-20.5 -50zM85 604zM15 604q0 -29 20.5 -49.5t49.5 -20.5t49.5 20.5t20.5 49.5t-20.5 50t-49.5 21t-49.5 -21t-20.5 -50zM652 439q-23 20 -59 20q-35 0 -57 -19
q-15 -14 -22 -36q-1 -3 -1 -6q0 -6 4 -11q5 -8 14 -9q17 -2 22 15q4 14 13 21q11 11 27 11q17 0 29 -11.5t12 -26.5q0 -8 -4 -15t-18 -20q-16 -14 -22 -21q-8 -10 -12 -20q-6 -14 -6 -32q1 -6 5 -10t9 -4h11v0q6 0 10 4t4 9q1 11 2 16q2 7 6 13q4 5 18 17q22 20 30 34t8 31
q0 29 -23 50zM592.5 254q-9.5 0 -16.5 -7t-7 -16.5t7 -16t16.5 -6.5t16.5 6.5t6.5 16t-7 16.5t-16 7zM719 397h155v-35h-155v35zM719 323h155v-35h-155v35zM719 248h155v-35h-155v35z" />
    <glyph glyph-name="youxuan" unicode="&#xe656;" 
d="M802 624l-207 120q-16 9 -40 15.5t-43 6.5t-43 -6.5t-40 -15.5l-207 -120q-35 -20 -59.5 -62t-24.5 -82v-239v0q0 -40 24.5 -82.5t59.5 -62.5l207 -119q16 -9 40 -15.5t43 -6.5t43 6.5t40 15.5l207 119q35 20 59.5 62.5t24.5 82.5v239v0q0 40 -24.5 82t-59.5 62zM615 539
q2 13 13.5 22t24.5 9v0v0q7 0 13 -2q17 -7 24 -24q2 -6 2 -13v0v0q0 -7 -2 -14q-4 -10 -15 -17.5t-22 -7.5q-4 0 -8 1q-13 2 -22 13.5t-9 24.5q0 4 1 8zM407 455h15v-312h-70v202h-57q49 119 72 233h71q-13 -65 -31 -123zM729 434h-66v-246q0 -7 5 -12t12 -5h49v-27h-105
q-13 0 -21.5 9t-8.5 21v260h-16q-19 -173 -67 -290h-72q54 151 69 290h-69v26h72q5 59 7 116h69q-2 -69 -7 -116h149v-26z" />
    <glyph glyph-name="shijian" unicode="&#xe657;" 
d="M816 406h44q11 0 19 -8t8 -19.5t-8 -19.5t-19 -8h-44q-11 0 -19.5 8t-8.5 19v0q0 12 8.5 20t19.5 8v0zM745 211l31 -31q8 -8 8 -19.5t-8 -19.5t-19.5 -8t-20.5 8l-30 31q-8 8 -8 19.5t8 19.5t19.5 8t19.5 -8zM538.5 142q11.5 0 19.5 -8t8 -20v-43q0 -12 -8 -20t-19.5 -8
t-19.5 8t-8 20v43q0 12 8 20t19.5 8zM776 576l-31 -31q-8 -8 -19.5 -8t-19.5 8.5t-8 20t8 19.5l30 30q9 9 20.5 9t19.5 -8.5t8 -20t-8 -19.5zM427 258l82 82q8 8 14 22.5t6 26.5v0v195q0 18 12 30t29.5 12t30 -12t12.5 -30v-229q0 -28 -20 -48q-29 -29 -107 -108
q-12 -12 -29.5 -12t-30 12t-12.5 29.5t13 29.5zM562 797q0 -15 10 -26.5t25 -13.5q97 -9 176.5 -63.5t123 -142t38.5 -186.5q-7 -143 -109 -244.5t-244 -109.5q-97 -5 -182.5 36.5t-141 117.5t-67.5 170l29 -28q11 -12 27.5 -12t28.5 12t12 28.5t-12 28.5l-100 100
q-12 11 -28 11t-27 -11l-101 -101q-11 -11 -11 -27q0 -17 11.5 -28.5t28.5 -11.5q16 0 28 11l33 33q11 -113 73.5 -207t162.5 -148t216 -54q92 0 176 36t144.5 97t96.5 145t36 176q0 116 -54 216t-148 162.5t-208 73.5q-17 1 -30 -10.5t-13 -29.5zM567.5 307
q-18.5 0 -31.5 13t-13 31v237q0 19 13 32t31.5 13t32 -13t13.5 -32v-237q0 -18 -13.5 -31t-32 -13z" />
    <glyph glyph-name="beta" unicode="&#xe658;" 
d="M917 605h-816q-19 0 -32.5 -12.5t-13.5 -30.5v-224q0 -18 13.5 -31t32.5 -13h816q20 0 33.5 13t13.5 31v224q0 18 -13.5 30.5t-33.5 12.5zM302 374q-9 -22 -27 -33q-16 -10 -37 -10q-18 0 -32 7q-10 6 -24 22v-25h-61v239h67v-83q9 10 22 15q12 6 28 6q32 0 52.5 -23
t20.5 -65q0 -29 -9 -50zM535 405h-133q2 -16 9 -24q9 -11 25 -11q9 0 18 4q6 4 12 11l66 -5q-16 -27 -37 -38t-60 -11q-35 0 -54 10q-20 9 -33 30q-13 22 -13 50q0 41 26 65q25 26 71 26q38 0 59 -12q22 -11 33 -33q11 -21 11 -55v-7zM639 331q-25 0 -37 6q-11 6 -17 19
t-6 42v61h-24v49h24v31l67 35v-66h36v-49h-36v-61q0 -12 2 -15q3 -5 11 -5q7 0 21 4l5 -46q-27 -5 -46 -5zM843 335q-4 7 -5 10q-1 2 -3 11q-13 -13 -25 -18q-18 -7 -41 -7q-31 0 -47.5 14.5t-16.5 35.5q0 20 12 32q11 13 43 19q26 5 48 11q14 4 24 8q0 12 -6 17q-5 5 -17 5
q-17 0 -25 -6q-6 -4 -10 -15l-64 7q4 16 11 26q6 9 19 17q8 4 25 8q17 2 35 2q30 0 47 -3q18 -3 30 -14q9 -7 14 -21t5 -25v-77q0 -13 1 -19q2 -6 7 -18h-61v0zM218 462q-14 0 -23 -10q-8 -10 -8 -30q0 -22 8 -33q8 -10 22 -10q11 0 20 10q7 10 7 33q0 21 -7 30
q-8 10 -19 10zM435 472q-16 0 -25 -12q-6 -8 -8 -24h66q-2 20 -10 28q-9 8 -23 8zM777 397q-5 -5 -5 -12t5 -12q6 -5 17 -5t20 5q10 6 14 13q4 8 4 20v11q-16 -6 -29 -9q-19 -5 -26 -11z" />
    <glyph glyph-name="bingtu" unicode="&#xe659;" 
d="M887 257q36 75 38 157q2 138 -84 246.5t-221 139.5l-72 -369zM585 863q-32 6 -65 8q-82 4 -160 -30l154 -348zM843 227l-338 176l-154 349q-100 -43 -160.5 -133t-62.5 -199q-2 -102 46.5 -191.5t134.5 -144t189 -59.5q110 -5 203.5 50t141.5 152z" />
    <glyph glyph-name="yanjing" unicode="&#xe65a;" 
d="M400 384q0 -50 32.5 -85.5t79 -35.5t79 35.5t32.5 85.5v1q-18 -21 -46 -21q-27 0 -46.5 20.5t-19.5 50.5q0 20 10.5 37.5t26.5 25.5q-17 7 -37 7q-46 0 -78.5 -35.5t-32.5 -85.5zM934 453q-29 39 -70.5 80t-96.5 81.5t-122.5 66t-132.5 25.5t-133 -25.5t-122.5 -66
t-96.5 -81.5t-70 -80q-24 -33 -25 -69q1 -35 25 -69q28 -39 70 -80t96.5 -81.5t122.5 -66t133 -25.5t132.5 25.5t122.5 66t96.5 81.5t70.5 80q25 33 25 69q-1 37 -25 69zM512 183q-77 0 -131.5 59t-54.5 142t54.5 142t131.5 59t131.5 -59t54.5 -142t-54.5 -142t-131.5 -59z
" />
    <glyph glyph-name="dunpai" unicode="&#xe65b;" 
d="M918 686q-152 33 -283 115q-29 18 -54.5 37t-36.5 29l-11 10q-9 9 -21 9t-21 -9q-5 -5 -18 -16t-49.5 -36.5t-79 -49.5t-107 -49.5t-131.5 -39.5q-10 -3 -17 -11t-7 -19v-395q0 -5 1 -10q3 -8 9.5 -23.5t29.5 -54t51 -74.5q57 -70 129 -121q91 -64 201 -94q5 -1 8.5 -1
t8.5 1q111 30 201 94q72 51 129 121q28 36 51 74.5t29.5 54t9.5 23.5q1 4 1 10v395q1 10 -5.5 18.5t-17.5 11.5zM881 267q-24 -63 -80 -131q-114 -141 -289 -191q-176 50 -289 191q-52 64 -80 131v365q147 36 279 119q49 30 90 64q38 -31 90 -64q131 -82 279 -119v-365z
M349 378q-10 7 -22.5 5t-20 -12.5t-5 -23t12.5 -19.5l125 -86q8 -5 18 -5q13 0 21 8l235 235q9 9 9 21.5t-9 21.5t-21.5 9t-21.5 -9l-217 -217z" />
    <glyph glyph-name="shouji" unicode="&#xe65c;" 
d="M774 -37h-524q-28 0 -48 20t-20 48v706q0 28 20 48t48 20h524q28 0 48 -20t20 -48v-706q0 -28 -20 -48t-48 -20zM797 714q0 19 -13.5 32.5t-32.5 13.5h-478q-18 0 -31.5 -13.5t-13.5 -32.5v-660q0 -19 13.5 -32t31.5 -13h478q19 0 32.5 13t13.5 32v660zM592 77h-159
q-10 0 -16.5 6.5t-6.5 16t6.5 16t16.5 6.5h159q9 0 15.5 -6.5t6.5 -16t-6.5 -16t-15.5 -6.5z" />
    <glyph glyph-name="xinfeng" unicode="&#xe65d;" 
d="M916 331q9 0 15.5 6.5t6.5 15.5v284q0 26 -15 48l-0.5 0.5t-0.5 1.5t-2 2q-26 31 -65 31h-692q-34 0 -58.5 -24.5t-24.5 -58.5v-505q0 -35 24.5 -59.5t58.5 -24.5h692q34 0 58.5 24.5t24.5 59.5v69q0 9 -6.5 15.5t-15.5 6.5t-15.5 -6.5t-6.5 -15.5v-65q0 -18 -13 -31
t-31 -13h-683q-18 0 -31 13t-13 31v497q0 1 0.5 3.5t0.5 3.5l384 -313q4 -4 11 -4h7q7 0 12 4l355 309q0 -1 0.5 -2l0.5 -1v-280q0 -9 6.5 -15.5t15.5 -6.5zM168 677h682q9 0 17 -3l-343 -300l-368 301q5 2 12 2z" />
    <glyph glyph-name="yuechi" unicode="&#xe65e;" 
d="M499 361.5q51 -48.5 53 -118.5t-47 -120.5t-119.5 -52.5t-121.5 46.5t-53 118.5t47 120.5t119.5 52.5t121.5 -46.5zM296 320q-34 -35 -32.5 -83.5t36.5 -82.5q35 -33 84 -32t83 36t33 83.5t-37 81.5q-35 34 -84 33t-83 -36zM546 579l122 127q-24 22 -25 54t22 56
q23 23 55.5 23.5t55.5 -21.5l70 63q2 2 6 4.5t16 7t25.5 4t33 -9.5t39.5 -28q25 -24 39 -47t16 -38t0.5 -26.5t-5.5 -17.5l-4 -6l-296 -307q58 -103 42.5 -226t-102.5 -212q-64 -67 -152 -96l-2 54q67 27 116 78q72 74 87.5 174.5t-27.5 188.5l-28 46l295 306q2 2 4 5
t6.5 12t4.5 18.5t-6.5 23.5t-21.5 27q-14 12 -27.5 17t-23 3.5t-17 -5t-10.5 -7.5l-4 -4l-72 -76l-38 36q-7 8 -18 7.5t-19 -8.5q-7 -7 -7 -18t8 -19l38 -35l-188 -195l-46 26q-90 39 -191 19t-172 -94q-61 -64 -81.5 -148t3.5 -167.5t89 -143.5q59 -56 138 -78l1 -54
q-101 23 -175 94q-75 71 -103.5 167.5t-4.5 194t95 171.5q86 90 209 111.5t230 -31.5z" />
    </font>
</defs>
</svg>
